<?xml version="1.0" encoding="UTF-8" standalone="no"?>
<svg width="566.929px" height="425.197px" viewBox="0 0 566.929 425.197"
 xmlns="http://www.w3.org/2000/svg" xmlns:xlink="http://www.w3.org/1999/xlink" version="1.2" baseProfile="tiny">
<title>Ginkosynthese Chords Diagram (10)</title>
<desc>Generated by MuseScore 3.6.2</desc>
<polyline class="StaffLines" fill="none" stroke="#000000" stroke-width="2.73" stroke-linejoin="bevel" points="0,173.622 566.929,173.622"/>
<polyline class="StaffLines" fill="none" stroke="#000000" stroke-width="2.73" stroke-linejoin="bevel" points="0,198.425 566.929,198.425"/>
<polyline class="StaffLines" fill="none" stroke="#000000" stroke-width="2.73" stroke-linejoin="bevel" points="0,223.228 566.929,223.228"/>
<polyline class="StaffLines" fill="none" stroke="#000000" stroke-width="2.73" stroke-linejoin="bevel" points="0,248.031 566.929,248.031"/>
<polyline class="StaffLines" fill="none" stroke="#000000" stroke-width="2.73" stroke-linejoin="bevel" points="0,272.835 566.929,272.835"/>
<polyline class="BarLine" fill="none" stroke="#000000" stroke-width="4.46" stroke-linejoin="bevel" points="564.697,172.258 564.697,274.199"/>
<path class="Accidental" transform="matrix(0.992126,0,0,0.992126,145.331,223.228)" d="M20.0938,-7.90625 C19.5,-11.7969 17.0938,-15.5 12,-15.5 C7,-15.5 4.09375,-12.4063 3.59375,-11.7969 L4,-43.9063 C4,-44.7031 3.40625,-45.2969 2.59375,-45.2969 L1.40625,-45.2969 C0.59375,-45.2969 0,-44.7031 0,-43.9063 L0.5,16.2031 C0.5,17 1.09375,17.5938 1.90625,17.5938 C2.09375,17.5938 2.5,17.5 2.70313,17.4063 C3.09375,17.2031 9.59375,14 15,7.90625 C18.7969,3.59375 20.2969,-1.29688 20.2969,-5.40625 C20.2969,-6.29688 20.2031,-7.09375 20.0938,-7.90625 M13.2031,-4 C13.2031,-2.5 12.7969,2.09375 10.2969,5.90625 C8.59375,8.5 5.20313,11.2031 3.29688,12.7031 L3.59375,-6.79688 C3.79688,-7.70313 5.29688,-10.5938 9.29688,-10.5938 C12.9063,-10.5938 13.2031,-7.20313 13.2031,-5.09375 L13.2031,-4 "/>
<path class="Accidental" transform="matrix(0.992126,0,0,0.992126,170.925,186.024)" d="M20.0938,-7.90625 C19.5,-11.7969 17.0938,-15.5 12,-15.5 C7,-15.5 4.09375,-12.4063 3.59375,-11.7969 L4,-43.9063 C4,-44.7031 3.40625,-45.2969 2.59375,-45.2969 L1.40625,-45.2969 C0.59375,-45.2969 0,-44.7031 0,-43.9063 L0.5,16.2031 C0.5,17 1.09375,17.5938 1.90625,17.5938 C2.09375,17.5938 2.5,17.5 2.70313,17.4063 C3.09375,17.2031 9.59375,14 15,7.90625 C18.7969,3.59375 20.2969,-1.29688 20.2969,-5.40625 C20.2969,-6.29688 20.2031,-7.09375 20.0938,-7.90625 M13.2031,-4 C13.2031,-2.5 12.7969,2.09375 10.2969,5.90625 C8.59375,8.5 5.20313,11.2031 3.29688,12.7031 L3.59375,-6.79688 C3.79688,-7.70313 5.29688,-10.5938 9.29688,-10.5938 C12.9063,-10.5938 13.2031,-7.20313 13.2031,-5.09375 L13.2031,-4 "/>
<polyline class="LedgerLine" fill="none" stroke="#000000" stroke-width="3.97" stroke-linejoin="bevel" points="188.581,297.638 242.947,297.638"/>
<path class="Note" transform="matrix(0.992126,0,0,0.992126,197.263,297.638)" d="M18.7031,-13.5938 C4.90625,-13.5938 0,-6.59375 0,-0.09375 C0,6.40625 4.90625,13.4063 18.7031,13.4063 C32.5,13.4063 37.2969,6.40625 37.2969,-0.09375 C37.2969,-6.59375 32.5,-13.5938 18.7031,-13.5938 M10.4063,-4.5 C10.2969,-4.90625 10.2969,-5.29688 10.2969,-5.70313 C10.2969,-6.5 10.5,-7.29688 10.9063,-8 C11.5938,-9 12.7969,-9.70313 14.2969,-10 C15.5938,-10.2969 16.2969,-10.5 18.9063,-10.5 L19,-10.5 C23,-10.5 24.2969,-6.79688 25.4063,-3 L25.7031,-2 C26.5,0.59375 26.9063,2.79688 26.9063,4.5 C26.9063,5.70313 26.7031,6.79688 26.2969,7.59375 C25.7031,8.70313 24.7031,9.40625 23,9.79688 C22.0938,10 20.5938,10.0938 20.5938,10.0938 C20.0938,10.0938 19.7031,10.2031 19.2969,10.2031 C16.0938,10.2031 14.0938,9 12.7031,4.70313 C11.5,1 11.2969,-0.09375 10.4063,-4.5"/>
<path class="Note" transform="matrix(0.992126,0,0,0.992126,197.263,248.031)" d="M18.7031,-13.5938 C4.90625,-13.5938 0,-6.59375 0,-0.09375 C0,6.40625 4.90625,13.4063 18.7031,13.4063 C32.5,13.4063 37.2969,6.40625 37.2969,-0.09375 C37.2969,-6.59375 32.5,-13.5938 18.7031,-13.5938 M10.4063,-4.5 C10.2969,-4.90625 10.2969,-5.29688 10.2969,-5.70313 C10.2969,-6.5 10.5,-7.29688 10.9063,-8 C11.5938,-9 12.7969,-9.70313 14.2969,-10 C15.5938,-10.2969 16.2969,-10.5 18.9063,-10.5 L19,-10.5 C23,-10.5 24.2969,-6.79688 25.4063,-3 L25.7031,-2 C26.5,0.59375 26.9063,2.79688 26.9063,4.5 C26.9063,5.70313 26.7031,6.79688 26.2969,7.59375 C25.7031,8.70313 24.7031,9.40625 23,9.79688 C22.0938,10 20.5938,10.0938 20.5938,10.0938 C20.0938,10.0938 19.7031,10.2031 19.2969,10.2031 C16.0938,10.2031 14.0938,9 12.7031,4.70313 C11.5,1 11.2969,-0.09375 10.4063,-4.5"/>
<path class="Note" transform="matrix(0.992126,0,0,0.992126,197.263,223.228)" d="M18.7031,-13.5938 C4.90625,-13.5938 0,-6.59375 0,-0.09375 C0,6.40625 4.90625,13.4063 18.7031,13.4063 C32.5,13.4063 37.2969,6.40625 37.2969,-0.09375 C37.2969,-6.59375 32.5,-13.5938 18.7031,-13.5938 M10.4063,-4.5 C10.2969,-4.90625 10.2969,-5.29688 10.2969,-5.70313 C10.2969,-6.5 10.5,-7.29688 10.9063,-8 C11.5938,-9 12.7969,-9.70313 14.2969,-10 C15.5938,-10.2969 16.2969,-10.5 18.9063,-10.5 L19,-10.5 C23,-10.5 24.2969,-6.79688 25.4063,-3 L25.7031,-2 C26.5,0.59375 26.9063,2.79688 26.9063,4.5 C26.9063,5.70313 26.7031,6.79688 26.2969,7.59375 C25.7031,8.70313 24.7031,9.40625 23,9.79688 C22.0938,10 20.5938,10.0938 20.5938,10.0938 C20.0938,10.0938 19.7031,10.2031 19.2969,10.2031 C16.0938,10.2031 14.0938,9 12.7031,4.70313 C11.5,1 11.2969,-0.09375 10.4063,-4.5"/>
<path class="Note" transform="matrix(0.992126,0,0,0.992126,197.263,186.024)" d="M18.7031,-13.5938 C4.90625,-13.5938 0,-6.59375 0,-0.09375 C0,6.40625 4.90625,13.4063 18.7031,13.4063 C32.5,13.4063 37.2969,6.40625 37.2969,-0.09375 C37.2969,-6.59375 32.5,-13.5938 18.7031,-13.5938 M10.4063,-4.5 C10.2969,-4.90625 10.2969,-5.29688 10.2969,-5.70313 C10.2969,-6.5 10.5,-7.29688 10.9063,-8 C11.5938,-9 12.7969,-9.70313 14.2969,-10 C15.5938,-10.2969 16.2969,-10.5 18.9063,-10.5 L19,-10.5 C23,-10.5 24.2969,-6.79688 25.4063,-3 L25.7031,-2 C26.5,0.59375 26.9063,2.79688 26.9063,4.5 C26.9063,5.70313 26.7031,6.79688 26.2969,7.59375 C25.7031,8.70313 24.7031,9.40625 23,9.79688 C22.0938,10 20.5938,10.0938 20.5938,10.0938 C20.0938,10.0938 19.7031,10.2031 19.2969,10.2031 C16.0938,10.2031 14.0938,9 12.7031,4.70313 C11.5,1 11.2969,-0.09375 10.4063,-4.5"/>
<path class="Clef" transform="matrix(0.992126,0,0,0.992126,19.8425,248.031)" d="M63.3594,-5.92188 C62.125,-11.3438 59.4844,-15.1719 58.7031,-16.2031 C55.5156,-20.4844 51.5,-23.3281 46.8125,-24.6875 C43.7031,-25.5625 40.7031,-25.6875 38.2813,-25.5 C37.2344,-31.5156 36.2344,-37.3906 35.3281,-42.8438 C40.7813,-49.0156 44.4063,-54.8125 46.6875,-59.1094 C50.1563,-65.6875 51.2969,-70.2656 51.3594,-70.4688 C53.0781,-75.6875 53.4375,-83.3906 52.3281,-91.5938 C51.3281,-99.1406 49.2344,-105.859 46.875,-109.109 C45.8594,-110.531 44.7969,-111.266 43.7656,-111.266 C42.5469,-111.266 40.0313,-110.031 37.1406,-107.25 C34.8438,-105.063 31.5781,-101.172 29.0156,-95.1563 C26.0156,-88.0938 25.7969,-78.6094 26.1563,-71.8906 C26.5313,-64.6094 27.6406,-58.9219 27.6563,-58.875 C27.6719,-58.7813 27.9375,-57.2813 28.375,-54.7188 C28.1563,-54.4844 27.9063,-54.2656 27.6563,-54.0156 C26.625,-53.0156 25.4375,-51.8906 24.0469,-50.5 C23.1875,-49.6406 22.2344,-48.7344 21.2344,-47.7656 C12.7969,-39.625 0,-27.2969 0,-8.14063 C0,-3.4375 0.90625,0.984375 2.6875,5 C4.26563,8.59375 6.5625,11.875 9.5,14.75 C17.2344,22.3125 27.8281,25.5156 34.875,25.3594 C37.8281,25.2813 40.4688,25.0469 42.8594,24.5938 C44.6875,34.2031 45.8281,41.2344 45.8594,46.5781 C45.9063,53.0938 44.25,57.0781 40.3594,59.8438 C37.9219,61.5781 35.1094,62.5313 32.0156,62.6719 C29.4219,62.7969 27.1563,62.3281 25.7344,61.9219 L25.7188,61.9219 C25.7188,61.9219 25.4375,61.8281 25.4219,61.6406 C25.4063,61.4531 25.7656,61.4063 25.7656,61.4063 L25.7969,61.4063 C27.7188,60.9688 31.2813,59.7344 33.6406,56.4375 C35.4375,53.9063 36.3125,49.2813 34.4688,45.3438 C33.3594,42.9531 30.8594,40 25.2344,39.5469 C22.7344,39.3438 20.4688,39.8594 18.4688,41.0625 C16.6563,42.1406 15.1563,43.7813 14.1094,45.7813 C11.6563,50.4844 12.1094,56.2188 15.2344,60.0625 C18.2031,63.6875 22.8125,66 28.25,66.5781 C29.1094,66.6719 29.9531,66.7031 30.7969,66.7031 C35.2344,66.7031 39.625,65.5 43.2031,63.2969 C46.8594,60.7188 48.9844,56.7344 49.6563,51.1094 C50.2188,46.4688 49.8281,40.5469 48.4375,32.4688 C48.0781,30.375 47.5313,27.3438 46.875,23.5938 C52.625,21.6719 56.7813,18.0938 60.5469,12.2344 C63.8438,6.5 64.7813,0.390625 63.3594,-5.92188 M29.1406,20.2969 C24.5,19.0781 20.0625,16.5781 16.3125,13.0625 C15,11.8438 13.125,9.67188 11.6563,6.28125 C10.2969,3.10938 9.625,-0.328125 9.6875,-3.90625 C9.75,-8.60938 11.0625,-13.4375 13.5625,-18.2188 C16.4844,-23.7969 21.0469,-29.3281 27.1094,-34.6563 C28.5625,-35.9375 29.9375,-37.2188 31.2188,-38.5 C31.9844,-34.2344 32.8125,-29.5469 33.6875,-24.6719 C29.8438,-23.4063 25.0938,-20.25 21.9844,-14.5938 C18.4375,-8.03125 18.5781,-2.5 19.3125,0.984375 C20.25,5.4375 22.7813,9.20313 26.2344,11.2969 C27.1719,11.8594 31.2969,13.9844 33.1406,13.4063 C33.5156,13.2969 33.7813,13.0625 33.9219,12.7344 C34.4375,11.5625 33.4063,10.9219 31.8594,9.96875 C31.25,9.59375 30.5781,9.17188 29.8594,8.64063 C26.5313,6.15625 25.0781,1.70313 26.1563,-2.6875 C26.7344,-5.07813 28.0156,-7.25 29.8594,-8.95313 C31.5156,-10.5 33.5625,-11.5938 35.9375,-12.2344 C37.9844,-0.984375 40.0469,10.1719 41.6875,18.5313 C41.8125,19.2188 41.9531,19.8906 42.0781,20.5625 C37.7031,21.5 33.3594,21.4063 29.1406,20.2969 M40.4688,-12.9063 C50.8125,-13.375 55.0781,-5.9375 55.9688,-1.10938 C56.4375,1.4375 56.4375,5.875 54.8906,10.0938 C53.7188,13.2656 51.2656,17.3438 46.125,19.4063 C46.0625,18.9844 45.9844,18.5469 45.9063,18.125 C44.3594,9.34375 42.4219,-1.65625 40.4688,-12.9063 M33.1406,-83.8594 C34.9219,-89.5938 37.6563,-92.8438 39.6563,-94.5781 C41.4063,-96.0938 43.0469,-96.8125 43.9688,-96.8125 C44.1094,-96.8125 44.2344,-96.7813 44.3281,-96.75 C44.7969,-96.6094 45.3281,-96.0469 45.7969,-95.1719 C48.1094,-90.8906 47.3594,-84.1719 46.0156,-79.7344 C44.3906,-74.3281 41.4688,-68.7188 32.6719,-59.1094 C32.5,-60.2188 32.3438,-61.2656 32.1875,-62.25 C30.9375,-70.5313 31.2656,-77.8125 33.1406,-83.8594"/>
<path class="StaffText" d="M212.99,112.71 L200.099,112.71 L200.099,115.069 L201.052,115.069 C203.896,115.116 204.849,115.272 205.193,115.772 C205.552,116.21 205.552,116.272 205.552,118.866 L205.552,138.022 C205.552,144.819 204.599,146.225 199.74,146.475 L199.74,148.819 L213.99,148.819 L213.99,146.475 C209.193,146.225 208.24,144.819 208.24,138.022 L208.24,115.913 L220.146,148.819 L222.146,148.819 L233.302,115.913 L233.302,142.663 C233.302,145.225 233.302,145.319 233.005,145.819 C232.599,146.319 231.646,146.475 228.802,146.475 L227.896,146.475 L227.896,148.819 L244.302,148.819 L244.302,146.475 L243.396,146.475 C240.552,146.475 239.599,146.319 239.193,145.819 C238.896,145.319 238.896,145.272 238.896,142.663 L238.896,118.866 C238.896,116.319 238.896,116.21 239.193,115.772 C239.599,115.272 240.552,115.116 243.396,115.069 L244.302,115.069 L244.302,112.71 L231.755,112.71 L222.599,139.366 L212.99,112.71 M255.943,125.522 L246.552,126.069 L246.552,128.225 L249.099,128.225 C250.99,128.272 251.24,128.569 251.24,130.725 L251.24,142.663 L251.24,145.022 C251.193,145.772 251.146,146.069 250.943,146.319 C250.599,146.772 249.646,146.975 247.49,147.022 L247.146,147.022 L247.146,148.819 L260.099,148.819 L260.099,147.022 L259.74,147.022 C256.396,146.913 255.943,146.663 255.943,144.866 L255.943,142.663 L255.943,125.522 M253.599,113.069 C251.99,113.069 250.693,114.366 250.693,115.96 C250.693,117.569 251.99,118.866 253.552,118.866 C255.193,118.866 256.49,117.569 256.49,115.96 C256.49,114.366 255.193,113.069 253.599,113.069 M271.646,125.522 L262.99,126.069 L262.99,128.225 L264.802,128.225 C266.693,128.272 266.943,128.569 266.943,130.725 L266.943,142.663 L266.943,143.866 L266.943,145.022 C266.896,145.772 266.849,146.069 266.646,146.319 C266.302,146.772 265.349,146.975 263.193,147.022 L262.99,147.022 L262.99,148.819 L275.646,148.819 L275.646,147.022 L275.443,147.022 C272.099,146.913 271.646,146.663 271.646,144.866 L271.646,142.663 L271.646,137.475 C271.646,135.022 271.99,132.772 272.552,131.616 C273.599,129.366 275.849,127.819 277.99,127.819 C279.302,127.819 280.802,128.522 281.552,129.569 C282.302,130.663 282.646,132.163 282.646,134.569 L282.646,142.663 L282.646,145.022 C282.599,145.772 282.552,146.069 282.349,146.319 C281.99,146.772 280.99,146.975 278.849,147.022 L278.646,147.022 L278.646,148.819 L291.302,148.819 L291.302,147.022 L291.099,147.022 C287.802,146.913 287.349,146.663 287.349,144.866 L287.349,142.663 L287.349,134.819 C287.349,131.225 287.193,130.319 286.302,128.616 C285.052,126.225 282.552,124.772 279.552,124.772 C276.302,124.772 273.849,126.272 271.646,129.569 L271.646,125.522 M305.24,124.772 C299.099,124.772 294.349,130.225 294.349,137.225 C294.349,144.069 299.146,149.569 305.146,149.569 C311.146,149.569 315.943,144.069 315.943,137.163 C315.943,130.319 311.146,124.772 305.24,124.772 M305.24,126.913 C308.74,126.913 310.693,130.569 310.693,137.163 C310.693,143.819 308.74,147.413 305.146,147.413 C301.552,147.413 299.599,143.819 299.599,137.225 C299.599,130.413 301.49,126.913 305.24,126.913 M327.552,125.522 L318.693,126.069 L318.693,128.225 L320.74,128.225 C322.646,128.272 322.896,128.569 322.896,130.725 L322.896,142.663 L322.896,145.022 C322.849,145.772 322.802,146.069 322.599,146.319 C322.24,146.772 321.24,146.975 319.099,147.022 L318.896,147.022 L318.896,148.819 L332.24,148.819 L332.24,147.022 L331.349,147.022 C327.99,146.913 327.552,146.663 327.552,144.866 L327.552,142.663 L327.552,142.163 C327.599,133.772 330.599,127.366 334.49,127.163 C333.802,127.975 333.599,128.475 333.599,129.413 C333.599,131.022 334.74,132.163 336.349,132.163 C338.193,132.163 339.396,130.819 339.396,128.819 C339.396,126.366 337.693,124.772 335.052,124.772 C331.896,124.772 329.193,127.272 327.552,131.725 L327.552,125.522 M356.599,125.725 L358.802,126.069 L359.693,122.116 C360.443,118.819 360.802,118.319 362.24,118.319 C362.49,118.319 362.896,118.319 363.349,118.366 C369.49,118.663 369.49,118.663 371.802,118.663 C372.443,118.663 373.599,118.663 374.99,118.616 L371.599,125.475 C367.896,132.819 367.443,133.725 366.193,136.819 C364.646,140.569 363.849,143.725 363.849,145.819 C363.849,148.116 365.052,149.522 366.99,149.522 C369.396,149.522 370.349,147.913 370.302,143.569 C370.052,136.366 370.943,132.866 376.302,121.163 C377.052,119.569 377.802,118.022 378.552,116.46 C378.599,116.366 378.74,115.913 379.052,115.272 L379.052,113.819 C376.052,114.069 374.443,114.163 371.349,114.163 C366.99,114.163 363.552,114.022 358.146,113.616 L356.599,125.725 M391.349,125.522 L391.349,115.616 L389.302,115.616 C388.802,122.116 386.599,125.413 382.552,125.725 L382.552,127.663 L386.646,127.663 L386.646,140.413 C386.646,143.913 386.74,145.163 387.24,146.319 C388.052,148.413 390.052,149.569 392.943,149.569 C397.443,149.569 400.349,146.163 400.349,140.866 C400.349,140.569 400.349,140.225 400.302,139.725 L398.193,139.725 C398.052,144.225 396.74,146.522 394.302,146.522 C393.146,146.522 392.146,145.913 391.802,145.069 C391.49,144.366 391.349,143.116 391.349,141.319 L391.349,127.663 L398.693,127.663 L398.693,125.522 L391.349,125.522 M410.646,111.96 L401.396,112.522 L401.396,114.663 L403.802,114.663 C405.693,114.71 405.943,115.022 405.943,117.163 L405.943,142.663 L405.943,143.866 L405.943,145.069 C405.896,145.772 405.849,146.069 405.646,146.319 C405.302,146.772 404.349,146.975 402.193,147.022 L401.99,147.022 L401.99,148.819 L414.646,148.819 L414.646,147.022 L414.443,147.022 C411.099,146.913 410.646,146.663 410.646,144.866 L410.646,142.663 L410.646,137.475 C410.646,135.022 410.99,132.772 411.552,131.616 C412.646,129.366 414.849,127.819 416.99,127.819 C418.302,127.819 419.802,128.569 420.49,129.569 C421.302,130.663 421.646,132.163 421.646,134.616 L421.646,142.663 L421.646,145.069 C421.599,145.772 421.552,146.069 421.349,146.319 C420.99,146.772 419.99,146.975 417.849,147.022 L417.646,147.022 L417.646,148.819 L430.302,148.819 L430.302,147.022 L430.099,147.022 C426.802,146.913 426.349,146.663 426.349,144.866 L426.349,142.663 L426.349,134.819 C426.349,131.225 426.193,130.319 425.302,128.616 C424.052,126.163 421.552,124.772 418.552,124.772 C415.302,124.772 412.896,126.225 410.646,129.569 L410.646,111.96 "/>
</svg>
