<?xml version="1.0" encoding="UTF-8" standalone="no"?>
<svg width="566.929px" height="425.197px" viewBox="0 0 566.929 425.197"
 xmlns="http://www.w3.org/2000/svg" xmlns:xlink="http://www.w3.org/1999/xlink" version="1.2" baseProfile="tiny">
<title>Ginkosynthese Chords Diagram (4)</title>
<desc>Generated by MuseScore 3.6.2</desc>
<polyline class="StaffLines" fill="none" stroke="#000000" stroke-width="2.73" stroke-linejoin="bevel" points="0,173.622 566.929,173.622"/>
<polyline class="StaffLines" fill="none" stroke="#000000" stroke-width="2.73" stroke-linejoin="bevel" points="0,198.425 566.929,198.425"/>
<polyline class="StaffLines" fill="none" stroke="#000000" stroke-width="2.73" stroke-linejoin="bevel" points="0,223.228 566.929,223.228"/>
<polyline class="StaffLines" fill="none" stroke="#000000" stroke-width="2.73" stroke-linejoin="bevel" points="0,248.031 566.929,248.031"/>
<polyline class="StaffLines" fill="none" stroke="#000000" stroke-width="2.73" stroke-linejoin="bevel" points="0,272.835 566.929,272.835"/>
<polyline class="BarLine" fill="none" stroke="#000000" stroke-width="4.46" stroke-linejoin="bevel" points="564.697,172.258 564.697,274.199"/>
<polyline class="LedgerLine" fill="none" stroke="#000000" stroke-width="3.97" stroke-linejoin="bevel" points="145.331,297.638 233.971,297.638"/>
<path class="Note" transform="matrix(0.992126,0,0,0.992126,154.012,297.638)" d="M18.7031,-13.5938 C4.90625,-13.5938 0,-6.59375 0,-0.09375 C0,6.40625 4.90625,13.4063 18.7031,13.4063 C32.5,13.4063 37.2969,6.40625 37.2969,-0.09375 C37.2969,-6.59375 32.5,-13.5938 18.7031,-13.5938 M10.4063,-4.5 C10.2969,-4.90625 10.2969,-5.29688 10.2969,-5.70313 C10.2969,-6.5 10.5,-7.29688 10.9063,-8 C11.5938,-9 12.7969,-9.70313 14.2969,-10 C15.5938,-10.2969 16.2969,-10.5 18.9063,-10.5 L19,-10.5 C23,-10.5 24.2969,-6.79688 25.4063,-3 L25.7031,-2 C26.5,0.59375 26.9063,2.79688 26.9063,4.5 C26.9063,5.70313 26.7031,6.79688 26.2969,7.59375 C25.7031,8.70313 24.7031,9.40625 23,9.79688 C22.0938,10 20.5938,10.0938 20.5938,10.0938 C20.0938,10.0938 19.7031,10.2031 19.2969,10.2031 C16.0938,10.2031 14.0938,9 12.7031,4.70313 C11.5,1 11.2969,-0.09375 10.4063,-4.5"/>
<path class="Note" transform="matrix(0.992126,0,0,0.992126,188.287,297.638)" d="M18.7031,-13.5938 C4.90625,-13.5938 0,-6.59375 0,-0.09375 C0,6.40625 4.90625,13.4063 18.7031,13.4063 C32.5,13.4063 37.2969,6.40625 37.2969,-0.09375 C37.2969,-6.59375 32.5,-13.5938 18.7031,-13.5938 M10.4063,-4.5 C10.2969,-4.90625 10.2969,-5.29688 10.2969,-5.70313 C10.2969,-6.5 10.5,-7.29688 10.9063,-8 C11.5938,-9 12.7969,-9.70313 14.2969,-10 C15.5938,-10.2969 16.2969,-10.5 18.9063,-10.5 L19,-10.5 C23,-10.5 24.2969,-6.79688 25.4063,-3 L25.7031,-2 C26.5,0.59375 26.9063,2.79688 26.9063,4.5 C26.9063,5.70313 26.7031,6.79688 26.2969,7.59375 C25.7031,8.70313 24.7031,9.40625 23,9.79688 C22.0938,10 20.5938,10.0938 20.5938,10.0938 C20.0938,10.0938 19.7031,10.2031 19.2969,10.2031 C16.0938,10.2031 14.0938,9 12.7031,4.70313 C11.5,1 11.2969,-0.09375 10.4063,-4.5"/>
<path class="Clef" transform="matrix(0.992126,0,0,0.992126,19.8425,248.031)" d="M63.3594,-5.92188 C62.125,-11.3438 59.4844,-15.1719 58.7031,-16.2031 C55.5156,-20.4844 51.5,-23.3281 46.8125,-24.6875 C43.7031,-25.5625 40.7031,-25.6875 38.2813,-25.5 C37.2344,-31.5156 36.2344,-37.3906 35.3281,-42.8438 C40.7813,-49.0156 44.4063,-54.8125 46.6875,-59.1094 C50.1563,-65.6875 51.2969,-70.2656 51.3594,-70.4688 C53.0781,-75.6875 53.4375,-83.3906 52.3281,-91.5938 C51.3281,-99.1406 49.2344,-105.859 46.875,-109.109 C45.8594,-110.531 44.7969,-111.266 43.7656,-111.266 C42.5469,-111.266 40.0313,-110.031 37.1406,-107.25 C34.8438,-105.063 31.5781,-101.172 29.0156,-95.1563 C26.0156,-88.0938 25.7969,-78.6094 26.1563,-71.8906 C26.5313,-64.6094 27.6406,-58.9219 27.6563,-58.875 C27.6719,-58.7813 27.9375,-57.2813 28.375,-54.7188 C28.1563,-54.4844 27.9063,-54.2656 27.6563,-54.0156 C26.625,-53.0156 25.4375,-51.8906 24.0469,-50.5 C23.1875,-49.6406 22.2344,-48.7344 21.2344,-47.7656 C12.7969,-39.625 0,-27.2969 0,-8.14063 C0,-3.4375 0.90625,0.984375 2.6875,5 C4.26563,8.59375 6.5625,11.875 9.5,14.75 C17.2344,22.3125 27.8281,25.5156 34.875,25.3594 C37.8281,25.2813 40.4688,25.0469 42.8594,24.5938 C44.6875,34.2031 45.8281,41.2344 45.8594,46.5781 C45.9063,53.0938 44.25,57.0781 40.3594,59.8438 C37.9219,61.5781 35.1094,62.5313 32.0156,62.6719 C29.4219,62.7969 27.1563,62.3281 25.7344,61.9219 L25.7188,61.9219 C25.7188,61.9219 25.4375,61.8281 25.4219,61.6406 C25.4063,61.4531 25.7656,61.4063 25.7656,61.4063 L25.7969,61.4063 C27.7188,60.9688 31.2813,59.7344 33.6406,56.4375 C35.4375,53.9063 36.3125,49.2813 34.4688,45.3438 C33.3594,42.9531 30.8594,40 25.2344,39.5469 C22.7344,39.3438 20.4688,39.8594 18.4688,41.0625 C16.6563,42.1406 15.1563,43.7813 14.1094,45.7813 C11.6563,50.4844 12.1094,56.2188 15.2344,60.0625 C18.2031,63.6875 22.8125,66 28.25,66.5781 C29.1094,66.6719 29.9531,66.7031 30.7969,66.7031 C35.2344,66.7031 39.625,65.5 43.2031,63.2969 C46.8594,60.7188 48.9844,56.7344 49.6563,51.1094 C50.2188,46.4688 49.8281,40.5469 48.4375,32.4688 C48.0781,30.375 47.5313,27.3438 46.875,23.5938 C52.625,21.6719 56.7813,18.0938 60.5469,12.2344 C63.8438,6.5 64.7813,0.390625 63.3594,-5.92188 M29.1406,20.2969 C24.5,19.0781 20.0625,16.5781 16.3125,13.0625 C15,11.8438 13.125,9.67188 11.6563,6.28125 C10.2969,3.10938 9.625,-0.328125 9.6875,-3.90625 C9.75,-8.60938 11.0625,-13.4375 13.5625,-18.2188 C16.4844,-23.7969 21.0469,-29.3281 27.1094,-34.6563 C28.5625,-35.9375 29.9375,-37.2188 31.2188,-38.5 C31.9844,-34.2344 32.8125,-29.5469 33.6875,-24.6719 C29.8438,-23.4063 25.0938,-20.25 21.9844,-14.5938 C18.4375,-8.03125 18.5781,-2.5 19.3125,0.984375 C20.25,5.4375 22.7813,9.20313 26.2344,11.2969 C27.1719,11.8594 31.2969,13.9844 33.1406,13.4063 C33.5156,13.2969 33.7813,13.0625 33.9219,12.7344 C34.4375,11.5625 33.4063,10.9219 31.8594,9.96875 C31.25,9.59375 30.5781,9.17188 29.8594,8.64063 C26.5313,6.15625 25.0781,1.70313 26.1563,-2.6875 C26.7344,-5.07813 28.0156,-7.25 29.8594,-8.95313 C31.5156,-10.5 33.5625,-11.5938 35.9375,-12.2344 C37.9844,-0.984375 40.0469,10.1719 41.6875,18.5313 C41.8125,19.2188 41.9531,19.8906 42.0781,20.5625 C37.7031,21.5 33.3594,21.4063 29.1406,20.2969 M40.4688,-12.9063 C50.8125,-13.375 55.0781,-5.9375 55.9688,-1.10938 C56.4375,1.4375 56.4375,5.875 54.8906,10.0938 C53.7188,13.2656 51.2656,17.3438 46.125,19.4063 C46.0625,18.9844 45.9844,18.5469 45.9063,18.125 C44.3594,9.34375 42.4219,-1.65625 40.4688,-12.9063 M33.1406,-83.8594 C34.9219,-89.5938 37.6563,-92.8438 39.6563,-94.5781 C41.4063,-96.0938 43.0469,-96.8125 43.9688,-96.8125 C44.1094,-96.8125 44.2344,-96.7813 44.3281,-96.75 C44.7969,-96.6094 45.3281,-96.0469 45.7969,-95.1719 C48.1094,-90.8906 47.3594,-84.1719 46.0156,-79.7344 C44.3906,-74.3281 41.4688,-68.7188 32.6719,-59.1094 C32.5,-60.2188 32.3438,-61.2656 32.1875,-62.25 C30.9375,-70.5313 31.2656,-77.8125 33.1406,-83.8594"/>
<path class="StaffText" d="M182.099,115.069 C186.895,115.319 187.849,116.71 187.849,123.569 L187.849,134.616 C187.849,138.616 187.599,140.225 186.645,141.975 C185.052,145.069 181.802,146.866 177.739,146.866 C174.302,146.866 171.395,145.569 169.739,143.319 C168.395,141.475 168.145,140.272 168.145,135.616 L168.145,118.866 C168.145,116.319 168.145,116.21 168.442,115.772 C168.849,115.272 169.802,115.116 172.645,115.069 L173.599,115.069 L173.599,112.71 L157.239,112.71 L157.239,115.069 L158.099,115.069 C160.895,115.116 161.849,115.272 162.239,115.772 C162.552,116.21 162.552,116.319 162.552,118.866 L162.552,135.319 L162.552,138.772 C162.692,141.413 163.099,143.022 164.052,144.413 C166.349,147.725 170.739,149.569 176.395,149.569 C182.052,149.569 185.942,147.866 188.349,144.319 C189.942,142.022 190.552,139.366 190.552,134.913 L190.552,123.569 C190.505,116.772 191.505,115.319 196.349,115.069 L196.349,112.71 L182.099,112.71 L182.099,115.069 M205.395,125.522 L196.739,126.069 L196.739,128.225 L198.552,128.225 C200.442,128.272 200.692,128.569 200.692,130.725 L200.692,142.663 L200.692,143.866 L200.692,145.022 C200.645,145.772 200.599,146.069 200.395,146.319 C200.052,146.772 199.099,146.975 196.942,147.022 L196.739,147.022 L196.739,148.819 L209.395,148.819 L209.395,147.022 L209.192,147.022 C205.849,146.913 205.395,146.663 205.395,144.866 L205.395,142.663 L205.395,137.475 C205.395,135.022 205.739,132.772 206.302,131.616 C207.349,129.366 209.599,127.819 211.739,127.819 C213.052,127.819 214.552,128.522 215.302,129.569 C216.052,130.663 216.395,132.163 216.395,134.569 L216.395,142.663 L216.395,145.022 C216.349,145.772 216.302,146.069 216.099,146.319 C215.739,146.772 214.739,146.975 212.599,147.022 L212.395,147.022 L212.395,148.819 L225.052,148.819 L225.052,147.022 L224.849,147.022 C221.552,146.913 221.099,146.663 221.099,144.866 L221.099,142.663 L221.099,134.819 C221.099,131.225 220.942,130.319 220.052,128.616 C218.802,126.225 216.302,124.772 213.302,124.772 C210.052,124.772 207.599,126.272 205.395,129.569 L205.395,125.522 M236.692,125.522 L227.302,126.069 L227.302,128.225 L229.849,128.225 C231.739,128.272 231.989,128.569 231.989,130.725 L231.989,142.663 L231.989,145.022 C231.942,145.772 231.895,146.069 231.692,146.319 C231.349,146.772 230.395,146.975 228.239,147.022 L227.895,147.022 L227.895,148.819 L240.849,148.819 L240.849,147.022 L240.489,147.022 C237.145,146.913 236.692,146.663 236.692,144.866 L236.692,142.663 L236.692,125.522 M234.349,113.069 C232.739,113.069 231.442,114.366 231.442,115.96 C231.442,117.569 232.739,118.866 234.302,118.866 C235.942,118.866 237.239,117.569 237.239,115.96 C237.239,114.366 235.942,113.069 234.349,113.069 M261.895,124.975 L260.145,124.975 L258.692,126.772 C256.895,125.366 255.099,124.772 252.599,124.772 C248.192,124.772 245.302,127.616 245.302,132.022 C245.302,133.975 245.942,135.616 247.052,136.616 C248.192,137.663 249.349,138.163 252.349,138.866 L254.989,139.475 C258.942,140.413 260.349,141.413 260.349,143.413 C260.349,145.772 258.302,147.413 255.395,147.413 C251.145,147.413 248.145,144.725 246.942,139.725 L244.942,139.725 L244.942,149.163 L246.692,149.163 L248.442,147.116 C250.489,148.772 252.739,149.569 255.302,149.569 C260.192,149.569 263.442,146.522 263.442,141.866 C263.442,139.663 262.739,137.975 261.349,136.819 C260.145,135.772 259.145,135.366 256.099,134.725 L253.599,134.163 C250.849,133.569 250.849,133.569 249.942,133.069 C248.849,132.569 248.192,131.522 248.192,130.413 C248.192,128.366 250.099,126.975 252.849,126.975 C254.739,126.975 256.302,127.616 257.692,128.975 C258.802,130.069 259.349,131.069 260.145,133.366 L261.895,133.366 L261.895,124.975 M277.989,124.772 C271.849,124.772 267.099,130.225 267.099,137.225 C267.099,144.069 271.895,149.569 277.895,149.569 C283.895,149.569 288.692,144.069 288.692,137.163 C288.692,130.319 283.895,124.772 277.989,124.772 M277.989,126.913 C281.489,126.913 283.442,130.569 283.442,137.163 C283.442,143.819 281.489,147.413 277.895,147.413 C274.302,147.413 272.349,143.819 272.349,137.225 C272.349,130.413 274.239,126.913 277.989,126.913 M300.395,125.522 L291.739,126.069 L291.739,128.225 L293.552,128.225 C295.442,128.272 295.692,128.569 295.692,130.725 L295.692,142.663 L295.692,143.866 L295.692,145.022 C295.645,145.772 295.599,146.069 295.395,146.319 C295.052,146.772 294.099,146.975 291.942,147.022 L291.739,147.022 L291.739,148.819 L304.395,148.819 L304.395,147.022 L304.192,147.022 C300.849,146.913 300.395,146.663 300.395,144.866 L300.395,142.663 L300.395,137.475 C300.395,135.022 300.739,132.772 301.302,131.616 C302.349,129.366 304.599,127.819 306.739,127.819 C308.052,127.819 309.552,128.522 310.302,129.569 C311.052,130.663 311.395,132.163 311.395,134.569 L311.395,142.663 L311.395,145.022 C311.349,145.772 311.302,146.069 311.099,146.319 C310.739,146.772 309.739,146.975 307.599,147.022 L307.395,147.022 L307.395,148.819 L320.052,148.819 L320.052,147.022 L319.849,147.022 C316.552,146.913 316.099,146.663 316.099,144.866 L316.099,142.663 L316.099,134.819 C316.099,131.225 315.942,130.319 315.052,128.616 C313.802,126.225 311.302,124.772 308.302,124.772 C305.052,124.772 302.599,126.272 300.395,129.569 L300.395,125.522 "/>
</svg>
