<?xml version="1.0" encoding="UTF-8" standalone="no"?>
<svg width="566.929px" height="425.197px" viewBox="0 0 566.929 425.197"
 xmlns="http://www.w3.org/2000/svg" xmlns:xlink="http://www.w3.org/1999/xlink" version="1.2" baseProfile="tiny">
<title>Ginkosynthese Chords Diagram (9)</title>
<desc>Generated by MuseScore 3.6.2</desc>
<polyline class="StaffLines" fill="none" stroke="#000000" stroke-width="2.73" stroke-linejoin="bevel" points="0,173.622 566.929,173.622"/>
<polyline class="StaffLines" fill="none" stroke="#000000" stroke-width="2.73" stroke-linejoin="bevel" points="0,198.425 566.929,198.425"/>
<polyline class="StaffLines" fill="none" stroke="#000000" stroke-width="2.73" stroke-linejoin="bevel" points="0,223.228 566.929,223.228"/>
<polyline class="StaffLines" fill="none" stroke="#000000" stroke-width="2.73" stroke-linejoin="bevel" points="0,248.031 566.929,248.031"/>
<polyline class="StaffLines" fill="none" stroke="#000000" stroke-width="2.73" stroke-linejoin="bevel" points="0,272.835 566.929,272.835"/>
<polyline class="BarLine" fill="none" stroke="#000000" stroke-width="4.46" stroke-linejoin="bevel" points="564.697,172.258 564.697,274.199"/>
<path class="Accidental" transform="matrix(0.992126,0,0,0.992126,145.331,223.228)" d="M20.0938,-7.90625 C19.5,-11.7969 17.0938,-15.5 12,-15.5 C7,-15.5 4.09375,-12.4063 3.59375,-11.7969 L4,-43.9063 C4,-44.7031 3.40625,-45.2969 2.59375,-45.2969 L1.40625,-45.2969 C0.59375,-45.2969 0,-44.7031 0,-43.9063 L0.5,16.2031 C0.5,17 1.09375,17.5938 1.90625,17.5938 C2.09375,17.5938 2.5,17.5 2.70313,17.4063 C3.09375,17.2031 9.59375,14 15,7.90625 C18.7969,3.59375 20.2969,-1.29688 20.2969,-5.40625 C20.2969,-6.29688 20.2031,-7.09375 20.0938,-7.90625 M13.2031,-4 C13.2031,-2.5 12.7969,2.09375 10.2969,5.90625 C8.59375,8.5 5.20313,11.2031 3.29688,12.7031 L3.59375,-6.79688 C3.79688,-7.70313 5.29688,-10.5938 9.29688,-10.5938 C12.9063,-10.5938 13.2031,-7.20313 13.2031,-5.09375 L13.2031,-4 "/>
<polyline class="LedgerLine" fill="none" stroke="#000000" stroke-width="3.97" stroke-linejoin="bevel" points="162.988,297.638 217.353,297.638"/>
<path class="Note" transform="matrix(0.992126,0,0,0.992126,171.669,297.638)" d="M18.7031,-13.5938 C4.90625,-13.5938 0,-6.59375 0,-0.09375 C0,6.40625 4.90625,13.4063 18.7031,13.4063 C32.5,13.4063 37.2969,6.40625 37.2969,-0.09375 C37.2969,-6.59375 32.5,-13.5938 18.7031,-13.5938 M10.4063,-4.5 C10.2969,-4.90625 10.2969,-5.29688 10.2969,-5.70313 C10.2969,-6.5 10.5,-7.29688 10.9063,-8 C11.5938,-9 12.7969,-9.70313 14.2969,-10 C15.5938,-10.2969 16.2969,-10.5 18.9063,-10.5 L19,-10.5 C23,-10.5 24.2969,-6.79688 25.4063,-3 L25.7031,-2 C26.5,0.59375 26.9063,2.79688 26.9063,4.5 C26.9063,5.70313 26.7031,6.79688 26.2969,7.59375 C25.7031,8.70313 24.7031,9.40625 23,9.79688 C22.0938,10 20.5938,10.0938 20.5938,10.0938 C20.0938,10.0938 19.7031,10.2031 19.2969,10.2031 C16.0938,10.2031 14.0938,9 12.7031,4.70313 C11.5,1 11.2969,-0.09375 10.4063,-4.5"/>
<path class="Note" transform="matrix(0.992126,0,0,0.992126,171.669,248.031)" d="M18.7031,-13.5938 C4.90625,-13.5938 0,-6.59375 0,-0.09375 C0,6.40625 4.90625,13.4063 18.7031,13.4063 C32.5,13.4063 37.2969,6.40625 37.2969,-0.09375 C37.2969,-6.59375 32.5,-13.5938 18.7031,-13.5938 M10.4063,-4.5 C10.2969,-4.90625 10.2969,-5.29688 10.2969,-5.70313 C10.2969,-6.5 10.5,-7.29688 10.9063,-8 C11.5938,-9 12.7969,-9.70313 14.2969,-10 C15.5938,-10.2969 16.2969,-10.5 18.9063,-10.5 L19,-10.5 C23,-10.5 24.2969,-6.79688 25.4063,-3 L25.7031,-2 C26.5,0.59375 26.9063,2.79688 26.9063,4.5 C26.9063,5.70313 26.7031,6.79688 26.2969,7.59375 C25.7031,8.70313 24.7031,9.40625 23,9.79688 C22.0938,10 20.5938,10.0938 20.5938,10.0938 C20.0938,10.0938 19.7031,10.2031 19.2969,10.2031 C16.0938,10.2031 14.0938,9 12.7031,4.70313 C11.5,1 11.2969,-0.09375 10.4063,-4.5"/>
<path class="Note" transform="matrix(0.992126,0,0,0.992126,171.669,223.228)" d="M18.7031,-13.5938 C4.90625,-13.5938 0,-6.59375 0,-0.09375 C0,6.40625 4.90625,13.4063 18.7031,13.4063 C32.5,13.4063 37.2969,6.40625 37.2969,-0.09375 C37.2969,-6.59375 32.5,-13.5938 18.7031,-13.5938 M10.4063,-4.5 C10.2969,-4.90625 10.2969,-5.29688 10.2969,-5.70313 C10.2969,-6.5 10.5,-7.29688 10.9063,-8 C11.5938,-9 12.7969,-9.70313 14.2969,-10 C15.5938,-10.2969 16.2969,-10.5 18.9063,-10.5 L19,-10.5 C23,-10.5 24.2969,-6.79688 25.4063,-3 L25.7031,-2 C26.5,0.59375 26.9063,2.79688 26.9063,4.5 C26.9063,5.70313 26.7031,6.79688 26.2969,7.59375 C25.7031,8.70313 24.7031,9.40625 23,9.79688 C22.0938,10 20.5938,10.0938 20.5938,10.0938 C20.0938,10.0938 19.7031,10.2031 19.2969,10.2031 C16.0938,10.2031 14.0938,9 12.7031,4.70313 C11.5,1 11.2969,-0.09375 10.4063,-4.5"/>
<path class="Note" transform="matrix(0.992126,0,0,0.992126,171.669,186.024)" d="M18.7031,-13.5938 C4.90625,-13.5938 0,-6.59375 0,-0.09375 C0,6.40625 4.90625,13.4063 18.7031,13.4063 C32.5,13.4063 37.2969,6.40625 37.2969,-0.09375 C37.2969,-6.59375 32.5,-13.5938 18.7031,-13.5938 M10.4063,-4.5 C10.2969,-4.90625 10.2969,-5.29688 10.2969,-5.70313 C10.2969,-6.5 10.5,-7.29688 10.9063,-8 C11.5938,-9 12.7969,-9.70313 14.2969,-10 C15.5938,-10.2969 16.2969,-10.5 18.9063,-10.5 L19,-10.5 C23,-10.5 24.2969,-6.79688 25.4063,-3 L25.7031,-2 C26.5,0.59375 26.9063,2.79688 26.9063,4.5 C26.9063,5.70313 26.7031,6.79688 26.2969,7.59375 C25.7031,8.70313 24.7031,9.40625 23,9.79688 C22.0938,10 20.5938,10.0938 20.5938,10.0938 C20.0938,10.0938 19.7031,10.2031 19.2969,10.2031 C16.0938,10.2031 14.0938,9 12.7031,4.70313 C11.5,1 11.2969,-0.09375 10.4063,-4.5"/>
<path class="Clef" transform="matrix(0.992126,0,0,0.992126,19.8425,248.031)" d="M63.3594,-5.92188 C62.125,-11.3438 59.4844,-15.1719 58.7031,-16.2031 C55.5156,-20.4844 51.5,-23.3281 46.8125,-24.6875 C43.7031,-25.5625 40.7031,-25.6875 38.2813,-25.5 C37.2344,-31.5156 36.2344,-37.3906 35.3281,-42.8438 C40.7813,-49.0156 44.4063,-54.8125 46.6875,-59.1094 C50.1563,-65.6875 51.2969,-70.2656 51.3594,-70.4688 C53.0781,-75.6875 53.4375,-83.3906 52.3281,-91.5938 C51.3281,-99.1406 49.2344,-105.859 46.875,-109.109 C45.8594,-110.531 44.7969,-111.266 43.7656,-111.266 C42.5469,-111.266 40.0313,-110.031 37.1406,-107.25 C34.8438,-105.063 31.5781,-101.172 29.0156,-95.1563 C26.0156,-88.0938 25.7969,-78.6094 26.1563,-71.8906 C26.5313,-64.6094 27.6406,-58.9219 27.6563,-58.875 C27.6719,-58.7813 27.9375,-57.2813 28.375,-54.7188 C28.1563,-54.4844 27.9063,-54.2656 27.6563,-54.0156 C26.625,-53.0156 25.4375,-51.8906 24.0469,-50.5 C23.1875,-49.6406 22.2344,-48.7344 21.2344,-47.7656 C12.7969,-39.625 0,-27.2969 0,-8.14063 C0,-3.4375 0.90625,0.984375 2.6875,5 C4.26563,8.59375 6.5625,11.875 9.5,14.75 C17.2344,22.3125 27.8281,25.5156 34.875,25.3594 C37.8281,25.2813 40.4688,25.0469 42.8594,24.5938 C44.6875,34.2031 45.8281,41.2344 45.8594,46.5781 C45.9063,53.0938 44.25,57.0781 40.3594,59.8438 C37.9219,61.5781 35.1094,62.5313 32.0156,62.6719 C29.4219,62.7969 27.1563,62.3281 25.7344,61.9219 L25.7188,61.9219 C25.7188,61.9219 25.4375,61.8281 25.4219,61.6406 C25.4063,61.4531 25.7656,61.4063 25.7656,61.4063 L25.7969,61.4063 C27.7188,60.9688 31.2813,59.7344 33.6406,56.4375 C35.4375,53.9063 36.3125,49.2813 34.4688,45.3438 C33.3594,42.9531 30.8594,40 25.2344,39.5469 C22.7344,39.3438 20.4688,39.8594 18.4688,41.0625 C16.6563,42.1406 15.1563,43.7813 14.1094,45.7813 C11.6563,50.4844 12.1094,56.2188 15.2344,60.0625 C18.2031,63.6875 22.8125,66 28.25,66.5781 C29.1094,66.6719 29.9531,66.7031 30.7969,66.7031 C35.2344,66.7031 39.625,65.5 43.2031,63.2969 C46.8594,60.7188 48.9844,56.7344 49.6563,51.1094 C50.2188,46.4688 49.8281,40.5469 48.4375,32.4688 C48.0781,30.375 47.5313,27.3438 46.875,23.5938 C52.625,21.6719 56.7813,18.0938 60.5469,12.2344 C63.8438,6.5 64.7813,0.390625 63.3594,-5.92188 M29.1406,20.2969 C24.5,19.0781 20.0625,16.5781 16.3125,13.0625 C15,11.8438 13.125,9.67188 11.6563,6.28125 C10.2969,3.10938 9.625,-0.328125 9.6875,-3.90625 C9.75,-8.60938 11.0625,-13.4375 13.5625,-18.2188 C16.4844,-23.7969 21.0469,-29.3281 27.1094,-34.6563 C28.5625,-35.9375 29.9375,-37.2188 31.2188,-38.5 C31.9844,-34.2344 32.8125,-29.5469 33.6875,-24.6719 C29.8438,-23.4063 25.0938,-20.25 21.9844,-14.5938 C18.4375,-8.03125 18.5781,-2.5 19.3125,0.984375 C20.25,5.4375 22.7813,9.20313 26.2344,11.2969 C27.1719,11.8594 31.2969,13.9844 33.1406,13.4063 C33.5156,13.2969 33.7813,13.0625 33.9219,12.7344 C34.4375,11.5625 33.4063,10.9219 31.8594,9.96875 C31.25,9.59375 30.5781,9.17188 29.8594,8.64063 C26.5313,6.15625 25.0781,1.70313 26.1563,-2.6875 C26.7344,-5.07813 28.0156,-7.25 29.8594,-8.95313 C31.5156,-10.5 33.5625,-11.5938 35.9375,-12.2344 C37.9844,-0.984375 40.0469,10.1719 41.6875,18.5313 C41.8125,19.2188 41.9531,19.8906 42.0781,20.5625 C37.7031,21.5 33.3594,21.4063 29.1406,20.2969 M40.4688,-12.9063 C50.8125,-13.375 55.0781,-5.9375 55.9688,-1.10938 C56.4375,1.4375 56.4375,5.875 54.8906,10.0938 C53.7188,13.2656 51.2656,17.3438 46.125,19.4063 C46.0625,18.9844 45.9844,18.5469 45.9063,18.125 C44.3594,9.34375 42.4219,-1.65625 40.4688,-12.9063 M33.1406,-83.8594 C34.9219,-89.5938 37.6563,-92.8438 39.6563,-94.5781 C41.4063,-96.0938 43.0469,-96.8125 43.9688,-96.8125 C44.1094,-96.8125 44.2344,-96.7813 44.3281,-96.75 C44.7969,-96.6094 45.3281,-96.0469 45.7969,-95.1719 C48.1094,-90.8906 47.3594,-84.1719 46.0156,-79.7344 C44.3906,-74.3281 41.4688,-68.7188 32.6719,-59.1094 C32.5,-60.2188 32.3438,-61.2656 32.1875,-62.25 C30.9375,-70.5313 31.2656,-77.8125 33.1406,-83.8594"/>
<path class="StaffText" d="M174.505,148.819 L191.302,148.819 C195.755,148.819 199.162,148.116 201.802,146.616 C206.849,143.772 209.662,138.069 209.662,130.569 C209.662,123.663 207.162,118.272 202.552,115.272 C199.802,113.522 196.099,112.71 190.396,112.71 L174.505,112.71 L174.505,115.069 L175.458,115.069 C178.255,115.116 179.208,115.272 179.599,115.772 C179.896,116.21 179.896,116.319 179.896,118.866 L179.896,142.663 C179.896,145.225 179.896,145.319 179.599,145.772 C179.208,146.272 178.255,146.413 175.458,146.475 L174.505,146.475 L174.505,148.819 M188.349,146.475 C185.802,146.475 185.505,146.163 185.505,143.725 L185.505,117.866 C185.505,115.413 185.849,115.069 188.349,115.069 L190.958,115.069 C199.505,115.069 203.052,119.71 203.052,130.772 C203.052,141.975 199.849,146.475 191.755,146.475 L188.349,146.475 M224.646,124.772 C218.505,124.772 213.755,130.225 213.755,137.225 C213.755,144.069 218.552,149.569 224.552,149.569 C230.552,149.569 235.349,144.069 235.349,137.163 C235.349,130.319 230.552,124.772 224.646,124.772 M224.646,126.913 C228.146,126.913 230.099,130.569 230.099,137.163 C230.099,143.819 228.146,147.413 224.552,147.413 C220.958,147.413 219.005,143.819 219.005,137.225 C219.005,130.413 220.896,126.913 224.646,126.913 M247.099,125.522 L238.208,126.069 L238.208,128.225 L240.255,128.225 C242.146,128.272 242.396,128.569 242.396,130.725 L242.396,142.663 L242.396,144.616 L242.396,145.022 C242.349,145.772 242.302,146.069 242.099,146.319 C241.755,146.772 240.802,146.975 238.646,147.022 L238.458,147.022 L238.458,148.819 L251.052,148.819 L251.052,147.022 L250.849,147.022 C247.552,146.913 247.099,146.663 247.099,144.819 L247.099,142.663 L247.099,135.569 C247.099,131.116 249.552,127.819 252.802,127.819 C255.646,127.819 257.099,129.866 257.099,133.913 L257.099,142.663 L257.099,145.069 C257.052,145.725 257.005,146.069 256.755,146.319 C256.458,146.772 255.458,146.975 253.302,147.022 L253.099,147.022 L253.099,148.819 L265.755,148.819 L265.755,147.022 L265.552,147.022 C262.255,146.913 261.802,146.663 261.802,144.866 L261.802,142.663 L261.802,136.022 C261.802,131.022 264.052,127.819 267.552,127.819 C270.412,127.819 271.802,129.975 271.802,134.475 L271.802,142.663 L271.802,145.022 C271.755,145.725 271.708,146.069 271.458,146.319 C271.162,146.772 270.162,146.975 268.005,147.022 L267.802,147.022 L267.802,148.819 L280.458,148.819 L280.458,147.022 L280.255,147.022 C276.958,146.913 276.505,146.663 276.505,144.819 L276.505,142.663 L276.505,133.475 C276.505,130.366 276.208,129.319 274.912,127.616 C273.458,125.772 271.412,124.772 269.005,124.772 C265.755,124.772 263.349,126.319 261.208,129.772 C260.349,126.772 257.646,124.772 254.302,124.772 C251.255,124.772 249.052,126.225 247.099,129.366 L247.099,125.522 M291.349,125.522 L281.958,126.069 L281.958,128.225 L284.505,128.225 C286.396,128.272 286.646,128.569 286.646,130.725 L286.646,142.663 L286.646,145.022 C286.599,145.772 286.552,146.069 286.349,146.319 C286.005,146.772 285.052,146.975 282.896,147.022 L282.552,147.022 L282.552,148.819 L295.505,148.819 L295.505,147.022 L295.146,147.022 C291.802,146.913 291.349,146.663 291.349,144.866 L291.349,142.663 L291.349,125.522 M289.005,113.069 C287.396,113.069 286.099,114.366 286.099,115.96 C286.099,117.569 287.396,118.866 288.958,118.866 C290.599,118.866 291.896,117.569 291.896,115.96 C291.896,114.366 290.599,113.069 289.005,113.069 M307.052,125.522 L298.396,126.069 L298.396,128.225 L300.208,128.225 C302.099,128.272 302.349,128.569 302.349,130.725 L302.349,142.663 L302.349,143.866 L302.349,145.022 C302.302,145.772 302.255,146.069 302.052,146.319 C301.708,146.772 300.755,146.975 298.599,147.022 L298.396,147.022 L298.396,148.819 L311.052,148.819 L311.052,147.022 L310.849,147.022 C307.505,146.913 307.052,146.663 307.052,144.866 L307.052,142.663 L307.052,137.475 C307.052,135.022 307.396,132.772 307.958,131.616 C309.005,129.366 311.255,127.819 313.396,127.819 C314.708,127.819 316.208,128.522 316.958,129.569 C317.708,130.663 318.052,132.163 318.052,134.569 L318.052,142.663 L318.052,145.022 C318.005,145.772 317.958,146.069 317.755,146.319 C317.396,146.772 316.396,146.975 314.255,147.022 L314.052,147.022 L314.052,148.819 L326.708,148.819 L326.708,147.022 L326.505,147.022 C323.208,146.913 322.755,146.663 322.755,144.866 L322.755,142.663 L322.755,134.819 C322.755,131.225 322.599,130.319 321.708,128.616 C320.458,126.225 317.958,124.772 314.958,124.772 C311.708,124.772 309.255,126.272 307.052,129.569 L307.052,125.522 M350.646,132.725 C350.646,129.569 350.099,127.975 348.646,126.772 C347.005,125.413 344.552,124.772 341.349,124.772 C335.708,124.772 331.599,127.413 331.599,131.069 C331.599,132.913 332.755,134.116 334.505,134.116 C336.099,134.116 337.208,133.069 337.208,131.569 C337.208,130.913 336.958,130.225 336.458,129.522 C336.146,129.163 336.099,129.069 336.099,128.819 C336.099,127.819 338.099,126.913 340.505,126.913 C342.099,126.913 343.849,127.413 344.646,128.163 C345.599,128.975 345.958,130.163 345.958,132.413 L345.958,134.366 C340.755,135.272 339.099,135.663 336.646,136.616 C332.302,138.225 330.255,140.522 330.255,143.725 C330.255,147.319 333.052,149.569 337.505,149.569 C340.958,149.569 344.052,148.163 346.208,145.616 C347.005,148.163 348.255,149.163 350.599,149.163 C352.849,149.163 355.208,147.725 355.208,146.272 C355.208,145.913 355.005,145.663 354.708,145.663 C354.505,145.663 354.302,145.725 353.958,145.866 C353.255,146.163 352.958,146.225 352.552,146.225 C351.146,146.225 350.646,145.319 350.646,142.772 L350.646,132.725 M345.958,138.819 C345.958,141.819 345.802,142.522 344.958,143.819 C343.708,145.663 341.458,146.913 339.255,146.913 C336.958,146.913 335.302,145.272 335.302,143.022 C335.302,140.913 336.349,139.413 338.552,138.366 C340.099,137.663 342.052,137.163 345.958,136.522 L345.958,138.819 M366.052,125.522 L357.396,126.069 L357.396,128.225 L359.208,128.225 C361.099,128.272 361.349,128.569 361.349,130.725 L361.349,142.663 L361.349,143.866 L361.349,145.022 C361.302,145.772 361.255,146.069 361.052,146.319 C360.708,146.772 359.755,146.975 357.599,147.022 L357.396,147.022 L357.396,148.819 L370.052,148.819 L370.052,147.022 L369.849,147.022 C366.505,146.913 366.052,146.663 366.052,144.866 L366.052,142.663 L366.052,137.475 C366.052,135.022 366.396,132.772 366.958,131.616 C368.005,129.366 370.255,127.819 372.396,127.819 C373.708,127.819 375.208,128.522 375.958,129.569 C376.708,130.663 377.052,132.163 377.052,134.569 L377.052,142.663 L377.052,145.022 C377.005,145.772 376.958,146.069 376.755,146.319 C376.396,146.772 375.396,146.975 373.255,147.022 L373.052,147.022 L373.052,148.819 L385.708,148.819 L385.708,147.022 L385.505,147.022 C382.208,146.913 381.755,146.663 381.755,144.866 L381.755,142.663 L381.755,134.819 C381.755,131.225 381.599,130.319 380.708,128.616 C379.458,126.225 376.958,124.772 373.958,124.772 C370.708,124.772 368.255,126.272 366.052,129.569 L366.052,125.522 M396.755,125.522 L396.755,115.616 L394.708,115.616 C394.208,122.116 392.005,125.413 387.958,125.725 L387.958,127.663 L392.052,127.663 L392.052,140.413 C392.052,143.913 392.146,145.163 392.646,146.319 C393.458,148.413 395.458,149.569 398.349,149.569 C402.849,149.569 405.755,146.163 405.755,140.866 C405.755,140.569 405.755,140.225 405.708,139.725 L403.599,139.725 C403.458,144.225 402.146,146.522 399.708,146.522 C398.552,146.522 397.552,145.913 397.208,145.069 C396.896,144.366 396.755,143.116 396.755,141.319 L396.755,127.663 L404.099,127.663 L404.099,125.522 L396.755,125.522 M423.005,125.725 L425.208,126.069 L426.099,122.116 C426.849,118.819 427.208,118.319 428.646,118.319 C428.896,118.319 429.302,118.319 429.755,118.366 C435.896,118.663 435.896,118.663 438.208,118.663 C438.849,118.663 440.005,118.663 441.396,118.616 L438.005,125.475 C434.302,132.819 433.849,133.725 432.599,136.819 C431.052,140.569 430.255,143.725 430.255,145.819 C430.255,148.116 431.458,149.522 433.396,149.522 C435.802,149.522 436.755,147.913 436.708,143.569 C436.458,136.366 437.349,132.866 442.708,121.163 C443.458,119.569 444.208,118.022 444.958,116.46 C445.005,116.366 445.146,115.913 445.458,115.272 L445.458,113.819 C442.458,114.069 440.849,114.163 437.755,114.163 C433.396,114.163 429.958,114.022 424.552,113.616 L423.005,125.725 M457.755,125.522 L457.755,115.616 L455.708,115.616 C455.208,122.116 453.005,125.413 448.958,125.725 L448.958,127.663 L453.052,127.663 L453.052,140.413 C453.052,143.913 453.146,145.163 453.646,146.319 C454.458,148.413 456.458,149.569 459.349,149.569 C463.849,149.569 466.755,146.163 466.755,140.866 C466.755,140.569 466.755,140.225 466.708,139.725 L464.599,139.725 C464.458,144.225 463.146,146.522 460.708,146.522 C459.552,146.522 458.552,145.913 458.208,145.069 C457.896,144.366 457.755,143.116 457.755,141.319 L457.755,127.663 L465.099,127.663 L465.099,125.522 L457.755,125.522 M477.052,111.96 L467.802,112.522 L467.802,114.663 L470.208,114.663 C472.099,114.71 472.349,115.022 472.349,117.163 L472.349,142.663 L472.349,143.866 L472.349,145.069 C472.302,145.772 472.255,146.069 472.052,146.319 C471.708,146.772 470.755,146.975 468.599,147.022 L468.396,147.022 L468.396,148.819 L481.052,148.819 L481.052,147.022 L480.849,147.022 C477.505,146.913 477.052,146.663 477.052,144.866 L477.052,142.663 L477.052,137.475 C477.052,135.022 477.396,132.772 477.958,131.616 C479.052,129.366 481.255,127.819 483.396,127.819 C484.708,127.819 486.208,128.569 486.896,129.569 C487.708,130.663 488.052,132.163 488.052,134.616 L488.052,142.663 L488.052,145.069 C488.005,145.772 487.958,146.069 487.755,146.319 C487.396,146.772 486.396,146.975 484.255,147.022 L484.052,147.022 L484.052,148.819 L496.708,148.819 L496.708,147.022 L496.505,147.022 C493.208,146.913 492.755,146.663 492.755,144.866 L492.755,142.663 L492.755,134.819 C492.755,131.225 492.599,130.319 491.708,128.616 C490.458,126.163 487.958,124.772 484.958,124.772 C481.708,124.772 479.302,126.225 477.052,129.569 L477.052,111.96 "/>
</svg>
