<?xml version="1.0" encoding="UTF-8" standalone="no"?>
<svg width="566.929px" height="425.197px" viewBox="0 0 566.929 425.197"
 xmlns="http://www.w3.org/2000/svg" xmlns:xlink="http://www.w3.org/1999/xlink" version="1.2" baseProfile="tiny">
<title>Ginkosynthese Chords Diagram (3)</title>
<desc>Generated by MuseScore 3.6.2</desc>
<polyline class="StaffLines" fill="none" stroke="#000000" stroke-width="2.73" stroke-linejoin="bevel" points="0,173.622 566.929,173.622"/>
<polyline class="StaffLines" fill="none" stroke="#000000" stroke-width="2.73" stroke-linejoin="bevel" points="0,198.425 566.929,198.425"/>
<polyline class="StaffLines" fill="none" stroke="#000000" stroke-width="2.73" stroke-linejoin="bevel" points="0,223.228 566.929,223.228"/>
<polyline class="StaffLines" fill="none" stroke="#000000" stroke-width="2.73" stroke-linejoin="bevel" points="0,248.031 566.929,248.031"/>
<polyline class="StaffLines" fill="none" stroke="#000000" stroke-width="2.73" stroke-linejoin="bevel" points="0,272.835 566.929,272.835"/>
<polyline class="BarLine" fill="none" stroke="#000000" stroke-width="4.46" stroke-linejoin="bevel" points="564.697,172.258 564.697,274.199"/>
<polyline class="LedgerLine" fill="none" stroke="#000000" stroke-width="3.97" stroke-linejoin="bevel" points="145.331,372.047 199.696,372.047"/>
<polyline class="LedgerLine" fill="none" stroke="#000000" stroke-width="3.97" stroke-linejoin="bevel" points="145.331,347.244 199.696,347.244"/>
<polyline class="LedgerLine" fill="none" stroke="#000000" stroke-width="3.97" stroke-linejoin="bevel" points="145.331,322.441 199.696,322.441"/>
<polyline class="LedgerLine" fill="none" stroke="#000000" stroke-width="3.97" stroke-linejoin="bevel" points="145.331,297.638 233.971,297.638"/>
<path class="Note" transform="matrix(0.992126,0,0,0.992126,154.012,384.449)" d="M18.7031,-13.5938 C4.90625,-13.5938 0,-6.59375 0,-0.09375 C0,6.40625 4.90625,13.4063 18.7031,13.4063 C32.5,13.4063 37.2969,6.40625 37.2969,-0.09375 C37.2969,-6.59375 32.5,-13.5938 18.7031,-13.5938 M10.4063,-4.5 C10.2969,-4.90625 10.2969,-5.29688 10.2969,-5.70313 C10.2969,-6.5 10.5,-7.29688 10.9063,-8 C11.5938,-9 12.7969,-9.70313 14.2969,-10 C15.5938,-10.2969 16.2969,-10.5 18.9063,-10.5 L19,-10.5 C23,-10.5 24.2969,-6.79688 25.4063,-3 L25.7031,-2 C26.5,0.59375 26.9063,2.79688 26.9063,4.5 C26.9063,5.70313 26.7031,6.79688 26.2969,7.59375 C25.7031,8.70313 24.7031,9.40625 23,9.79688 C22.0938,10 20.5938,10.0938 20.5938,10.0938 C20.0938,10.0938 19.7031,10.2031 19.2969,10.2031 C16.0938,10.2031 14.0938,9 12.7031,4.70313 C11.5,1 11.2969,-0.09375 10.4063,-4.5"/>
<path class="Note" transform="matrix(0.992126,0,0,0.992126,154.012,297.638)" d="M18.7031,-13.5938 C4.90625,-13.5938 0,-6.59375 0,-0.09375 C0,6.40625 4.90625,13.4063 18.7031,13.4063 C32.5,13.4063 37.2969,6.40625 37.2969,-0.09375 C37.2969,-6.59375 32.5,-13.5938 18.7031,-13.5938 M10.4063,-4.5 C10.2969,-4.90625 10.2969,-5.29688 10.2969,-5.70313 C10.2969,-6.5 10.5,-7.29688 10.9063,-8 C11.5938,-9 12.7969,-9.70313 14.2969,-10 C15.5938,-10.2969 16.2969,-10.5 18.9063,-10.5 L19,-10.5 C23,-10.5 24.2969,-6.79688 25.4063,-3 L25.7031,-2 C26.5,0.59375 26.9063,2.79688 26.9063,4.5 C26.9063,5.70313 26.7031,6.79688 26.2969,7.59375 C25.7031,8.70313 24.7031,9.40625 23,9.79688 C22.0938,10 20.5938,10.0938 20.5938,10.0938 C20.0938,10.0938 19.7031,10.2031 19.2969,10.2031 C16.0938,10.2031 14.0938,9 12.7031,4.70313 C11.5,1 11.2969,-0.09375 10.4063,-4.5"/>
<path class="Note" transform="matrix(0.992126,0,0,0.992126,188.287,297.638)" d="M18.7031,-13.5938 C4.90625,-13.5938 0,-6.59375 0,-0.09375 C0,6.40625 4.90625,13.4063 18.7031,13.4063 C32.5,13.4063 37.2969,6.40625 37.2969,-0.09375 C37.2969,-6.59375 32.5,-13.5938 18.7031,-13.5938 M10.4063,-4.5 C10.2969,-4.90625 10.2969,-5.29688 10.2969,-5.70313 C10.2969,-6.5 10.5,-7.29688 10.9063,-8 C11.5938,-9 12.7969,-9.70313 14.2969,-10 C15.5938,-10.2969 16.2969,-10.5 18.9063,-10.5 L19,-10.5 C23,-10.5 24.2969,-6.79688 25.4063,-3 L25.7031,-2 C26.5,0.59375 26.9063,2.79688 26.9063,4.5 C26.9063,5.70313 26.7031,6.79688 26.2969,7.59375 C25.7031,8.70313 24.7031,9.40625 23,9.79688 C22.0938,10 20.5938,10.0938 20.5938,10.0938 C20.0938,10.0938 19.7031,10.2031 19.2969,10.2031 C16.0938,10.2031 14.0938,9 12.7031,4.70313 C11.5,1 11.2969,-0.09375 10.4063,-4.5"/>
<path class="Note" transform="matrix(0.992126,0,0,0.992126,154.012,210.827)" d="M18.7031,-13.5938 C4.90625,-13.5938 0,-6.59375 0,-0.09375 C0,6.40625 4.90625,13.4063 18.7031,13.4063 C32.5,13.4063 37.2969,6.40625 37.2969,-0.09375 C37.2969,-6.59375 32.5,-13.5938 18.7031,-13.5938 M10.4063,-4.5 C10.2969,-4.90625 10.2969,-5.29688 10.2969,-5.70313 C10.2969,-6.5 10.5,-7.29688 10.9063,-8 C11.5938,-9 12.7969,-9.70313 14.2969,-10 C15.5938,-10.2969 16.2969,-10.5 18.9063,-10.5 L19,-10.5 C23,-10.5 24.2969,-6.79688 25.4063,-3 L25.7031,-2 C26.5,0.59375 26.9063,2.79688 26.9063,4.5 C26.9063,5.70313 26.7031,6.79688 26.2969,7.59375 C25.7031,8.70313 24.7031,9.40625 23,9.79688 C22.0938,10 20.5938,10.0938 20.5938,10.0938 C20.0938,10.0938 19.7031,10.2031 19.2969,10.2031 C16.0938,10.2031 14.0938,9 12.7031,4.70313 C11.5,1 11.2969,-0.09375 10.4063,-4.5"/>
<path class="Clef" transform="matrix(0.992126,0,0,0.992126,19.8425,248.031)" d="M63.3594,-5.92188 C62.125,-11.3438 59.4844,-15.1719 58.7031,-16.2031 C55.5156,-20.4844 51.5,-23.3281 46.8125,-24.6875 C43.7031,-25.5625 40.7031,-25.6875 38.2813,-25.5 C37.2344,-31.5156 36.2344,-37.3906 35.3281,-42.8438 C40.7813,-49.0156 44.4063,-54.8125 46.6875,-59.1094 C50.1563,-65.6875 51.2969,-70.2656 51.3594,-70.4688 C53.0781,-75.6875 53.4375,-83.3906 52.3281,-91.5938 C51.3281,-99.1406 49.2344,-105.859 46.875,-109.109 C45.8594,-110.531 44.7969,-111.266 43.7656,-111.266 C42.5469,-111.266 40.0313,-110.031 37.1406,-107.25 C34.8438,-105.063 31.5781,-101.172 29.0156,-95.1563 C26.0156,-88.0938 25.7969,-78.6094 26.1563,-71.8906 C26.5313,-64.6094 27.6406,-58.9219 27.6563,-58.875 C27.6719,-58.7813 27.9375,-57.2813 28.375,-54.7188 C28.1563,-54.4844 27.9063,-54.2656 27.6563,-54.0156 C26.625,-53.0156 25.4375,-51.8906 24.0469,-50.5 C23.1875,-49.6406 22.2344,-48.7344 21.2344,-47.7656 C12.7969,-39.625 0,-27.2969 0,-8.14063 C0,-3.4375 0.90625,0.984375 2.6875,5 C4.26563,8.59375 6.5625,11.875 9.5,14.75 C17.2344,22.3125 27.8281,25.5156 34.875,25.3594 C37.8281,25.2813 40.4688,25.0469 42.8594,24.5938 C44.6875,34.2031 45.8281,41.2344 45.8594,46.5781 C45.9063,53.0938 44.25,57.0781 40.3594,59.8438 C37.9219,61.5781 35.1094,62.5313 32.0156,62.6719 C29.4219,62.7969 27.1563,62.3281 25.7344,61.9219 L25.7188,61.9219 C25.7188,61.9219 25.4375,61.8281 25.4219,61.6406 C25.4063,61.4531 25.7656,61.4063 25.7656,61.4063 L25.7969,61.4063 C27.7188,60.9688 31.2813,59.7344 33.6406,56.4375 C35.4375,53.9063 36.3125,49.2813 34.4688,45.3438 C33.3594,42.9531 30.8594,40 25.2344,39.5469 C22.7344,39.3438 20.4688,39.8594 18.4688,41.0625 C16.6563,42.1406 15.1563,43.7813 14.1094,45.7813 C11.6563,50.4844 12.1094,56.2188 15.2344,60.0625 C18.2031,63.6875 22.8125,66 28.25,66.5781 C29.1094,66.6719 29.9531,66.7031 30.7969,66.7031 C35.2344,66.7031 39.625,65.5 43.2031,63.2969 C46.8594,60.7188 48.9844,56.7344 49.6563,51.1094 C50.2188,46.4688 49.8281,40.5469 48.4375,32.4688 C48.0781,30.375 47.5313,27.3438 46.875,23.5938 C52.625,21.6719 56.7813,18.0938 60.5469,12.2344 C63.8438,6.5 64.7813,0.390625 63.3594,-5.92188 M29.1406,20.2969 C24.5,19.0781 20.0625,16.5781 16.3125,13.0625 C15,11.8438 13.125,9.67188 11.6563,6.28125 C10.2969,3.10938 9.625,-0.328125 9.6875,-3.90625 C9.75,-8.60938 11.0625,-13.4375 13.5625,-18.2188 C16.4844,-23.7969 21.0469,-29.3281 27.1094,-34.6563 C28.5625,-35.9375 29.9375,-37.2188 31.2188,-38.5 C31.9844,-34.2344 32.8125,-29.5469 33.6875,-24.6719 C29.8438,-23.4063 25.0938,-20.25 21.9844,-14.5938 C18.4375,-8.03125 18.5781,-2.5 19.3125,0.984375 C20.25,5.4375 22.7813,9.20313 26.2344,11.2969 C27.1719,11.8594 31.2969,13.9844 33.1406,13.4063 C33.5156,13.2969 33.7813,13.0625 33.9219,12.7344 C34.4375,11.5625 33.4063,10.9219 31.8594,9.96875 C31.25,9.59375 30.5781,9.17188 29.8594,8.64063 C26.5313,6.15625 25.0781,1.70313 26.1563,-2.6875 C26.7344,-5.07813 28.0156,-7.25 29.8594,-8.95313 C31.5156,-10.5 33.5625,-11.5938 35.9375,-12.2344 C37.9844,-0.984375 40.0469,10.1719 41.6875,18.5313 C41.8125,19.2188 41.9531,19.8906 42.0781,20.5625 C37.7031,21.5 33.3594,21.4063 29.1406,20.2969 M40.4688,-12.9063 C50.8125,-13.375 55.0781,-5.9375 55.9688,-1.10938 C56.4375,1.4375 56.4375,5.875 54.8906,10.0938 C53.7188,13.2656 51.2656,17.3438 46.125,19.4063 C46.0625,18.9844 45.9844,18.5469 45.9063,18.125 C44.3594,9.34375 42.4219,-1.65625 40.4688,-12.9063 M33.1406,-83.8594 C34.9219,-89.5938 37.6563,-92.8438 39.6563,-94.5781 C41.4063,-96.0938 43.0469,-96.8125 43.9688,-96.8125 C44.1094,-96.8125 44.2344,-96.7813 44.3281,-96.75 C44.7969,-96.6094 45.3281,-96.0469 45.7969,-95.1719 C48.1094,-90.8906 47.3594,-84.1719 46.0156,-79.7344 C44.3906,-74.3281 41.4688,-68.7188 32.6719,-59.1094 C32.5,-60.2188 32.3438,-61.2656 32.1875,-62.25 C30.9375,-70.5313 31.2656,-77.8125 33.1406,-83.8594"/>
<path class="StaffText" d="M174.052,111.96 C169.599,111.96 165.802,113.366 162.739,116.163 C158.895,119.71 156.645,125.116 156.645,130.819 C156.645,136.413 158.942,141.866 162.739,145.366 C165.739,148.116 169.552,149.569 173.849,149.569 C183.645,149.569 191.052,141.475 191.052,130.772 C191.052,120.163 183.645,111.96 174.052,111.96 M173.989,114.319 C177.349,114.319 180.145,115.866 181.942,118.616 C183.802,121.569 184.442,124.616 184.442,130.772 C184.442,136.866 183.802,139.913 181.942,142.913 C180.145,145.725 177.395,147.225 173.849,147.225 C170.302,147.225 167.552,145.772 165.739,142.913 C163.849,139.913 163.239,136.866 163.239,130.663 C163.239,124.616 163.895,121.616 165.739,118.616 C167.599,115.71 170.239,114.319 173.989,114.319 M212.739,141.475 C211.145,145.069 209.442,146.522 206.849,146.522 C202.849,146.522 200.349,142.866 200.349,137.022 C200.349,130.913 202.802,126.913 206.489,126.913 C207.989,126.913 209.302,127.616 209.302,128.413 C209.302,128.569 209.239,128.725 208.989,129.022 C208.192,129.975 207.989,130.475 207.989,131.319 C207.989,132.975 209.239,134.116 210.989,134.116 C212.802,134.116 214.052,132.725 214.052,130.725 C214.052,127.319 210.692,124.772 206.239,124.772 C199.739,124.772 195.099,130.069 195.099,137.569 C195.099,144.663 199.349,149.569 205.552,149.569 C209.989,149.569 212.552,147.522 214.692,142.225 L212.739,141.475 M225.099,125.522 L225.099,115.616 L223.052,115.616 C222.552,122.116 220.349,125.413 216.302,125.725 L216.302,127.663 L220.395,127.663 L220.395,140.413 C220.395,143.913 220.489,145.163 220.989,146.319 C221.802,148.413 223.802,149.569 226.692,149.569 C231.192,149.569 234.099,146.163 234.099,140.866 C234.099,140.569 234.099,140.225 234.052,139.725 L231.942,139.725 C231.802,144.225 230.489,146.522 228.052,146.522 C226.895,146.522 225.895,145.913 225.552,145.069 C225.239,144.366 225.099,143.116 225.099,141.319 L225.099,127.663 L232.442,127.663 L232.442,125.522 L225.099,125.522 M256.989,132.725 C256.989,129.569 256.442,127.975 254.989,126.772 C253.349,125.413 250.895,124.772 247.692,124.772 C242.052,124.772 237.942,127.413 237.942,131.069 C237.942,132.913 239.099,134.116 240.849,134.116 C242.442,134.116 243.552,133.069 243.552,131.569 C243.552,130.913 243.302,130.225 242.802,129.522 C242.489,129.163 242.442,129.069 242.442,128.819 C242.442,127.819 244.442,126.913 246.849,126.913 C248.442,126.913 250.192,127.413 250.989,128.163 C251.942,128.975 252.302,130.163 252.302,132.413 L252.302,134.366 C247.099,135.272 245.442,135.663 242.989,136.616 C238.645,138.225 236.599,140.522 236.599,143.725 C236.599,147.319 239.395,149.569 243.849,149.569 C247.302,149.569 250.395,148.163 252.552,145.616 C253.349,148.163 254.599,149.163 256.942,149.163 C259.192,149.163 261.552,147.725 261.552,146.272 C261.552,145.913 261.349,145.663 261.052,145.663 C260.849,145.663 260.645,145.725 260.302,145.866 C259.599,146.163 259.302,146.225 258.895,146.225 C257.489,146.225 256.989,145.319 256.989,142.772 L256.989,132.725 M252.302,138.819 C252.302,141.819 252.145,142.522 251.302,143.819 C250.052,145.663 247.802,146.913 245.599,146.913 C243.302,146.913 241.645,145.272 241.645,143.022 C241.645,140.913 242.692,139.413 244.895,138.366 C246.442,137.663 248.395,137.163 252.302,136.522 L252.302,138.819 M275.145,142.772 L269.442,129.569 C269.302,129.163 269.192,128.772 269.192,128.475 C269.192,127.616 269.849,127.319 271.895,127.319 L272.599,127.319 L272.599,125.522 L260.802,125.522 L260.802,127.319 L261.192,127.319 C263.099,127.319 263.802,127.819 264.489,129.475 L273.099,149.569 L274.849,149.569 L281.942,132.022 C283.349,128.616 284.552,127.475 286.599,127.319 L286.802,127.319 L286.802,125.522 L276.802,125.522 L276.802,127.319 L277.489,127.319 C279.239,127.319 280.192,127.913 280.192,129.069 C280.192,129.663 280.052,130.413 279.739,131.163 L275.145,142.772 M309.645,137.569 C309.692,130.069 305.442,124.772 299.349,124.772 C292.942,124.772 288.145,130.319 288.145,137.819 C288.145,144.866 292.692,149.569 299.442,149.569 C304.239,149.569 307.599,147.225 309.645,142.475 L307.895,141.522 C305.849,145.366 303.739,146.866 300.395,146.866 C297.849,146.866 295.989,145.819 294.692,143.569 C293.802,142.069 293.395,140.319 293.442,137.569 L309.645,137.569 M293.489,135.413 C293.489,133.866 293.692,132.772 294.192,131.366 C295.239,128.366 296.849,126.913 299.302,126.913 C302.302,126.913 304.302,129.569 304.302,133.616 C304.302,135.022 303.849,135.413 302.239,135.413 L293.489,135.413 M330.895,124.975 L329.145,124.975 L327.692,126.772 C325.895,125.366 324.099,124.772 321.599,124.772 C317.192,124.772 314.302,127.616 314.302,132.022 C314.302,133.975 314.942,135.616 316.052,136.616 C317.192,137.663 318.349,138.163 321.349,138.866 L323.989,139.475 C327.942,140.413 329.349,141.413 329.349,143.413 C329.349,145.772 327.302,147.413 324.395,147.413 C320.145,147.413 317.145,144.725 315.942,139.725 L313.942,139.725 L313.942,149.163 L315.692,149.163 L317.442,147.116 C319.489,148.772 321.739,149.569 324.302,149.569 C329.192,149.569 332.442,146.522 332.442,141.866 C332.442,139.663 331.739,137.975 330.349,136.819 C329.145,135.772 328.145,135.366 325.099,134.725 L322.599,134.163 C319.849,133.569 319.849,133.569 318.942,133.069 C317.849,132.569 317.192,131.522 317.192,130.413 C317.192,128.366 319.099,126.975 321.849,126.975 C323.739,126.975 325.302,127.616 326.692,128.975 C327.802,130.069 328.349,131.069 329.145,133.366 L330.895,133.366 L330.895,124.975 "/>
</svg>
