<?xml version="1.0" encoding="UTF-8" standalone="no"?>
<svg width="566.929px" height="425.197px" viewBox="0 0 566.929 425.197"
 xmlns="http://www.w3.org/2000/svg" xmlns:xlink="http://www.w3.org/1999/xlink" version="1.2" baseProfile="tiny">
<title>Ginkosynthese Chords Diagram (5)</title>
<desc>Generated by MuseScore 3.6.2</desc>
<polyline class="StaffLines" fill="none" stroke="#000000" stroke-width="2.73" stroke-linejoin="bevel" points="0,173.622 566.929,173.622"/>
<polyline class="StaffLines" fill="none" stroke="#000000" stroke-width="2.73" stroke-linejoin="bevel" points="0,198.425 566.929,198.425"/>
<polyline class="StaffLines" fill="none" stroke="#000000" stroke-width="2.73" stroke-linejoin="bevel" points="0,223.228 566.929,223.228"/>
<polyline class="StaffLines" fill="none" stroke="#000000" stroke-width="2.73" stroke-linejoin="bevel" points="0,248.031 566.929,248.031"/>
<polyline class="StaffLines" fill="none" stroke="#000000" stroke-width="2.73" stroke-linejoin="bevel" points="0,272.835 566.929,272.835"/>
<polyline class="BarLine" fill="none" stroke="#000000" stroke-width="4.46" stroke-linejoin="bevel" points="564.697,172.258 564.697,274.199"/>
<path class="Accidental" transform="matrix(0.992126,0,0,0.992126,145.331,223.228)" d="M20.0938,-7.90625 C19.5,-11.7969 17.0938,-15.5 12,-15.5 C7,-15.5 4.09375,-12.4063 3.59375,-11.7969 L4,-43.9063 C4,-44.7031 3.40625,-45.2969 2.59375,-45.2969 L1.40625,-45.2969 C0.59375,-45.2969 0,-44.7031 0,-43.9063 L0.5,16.2031 C0.5,17 1.09375,17.5938 1.90625,17.5938 C2.09375,17.5938 2.5,17.5 2.70313,17.4063 C3.09375,17.2031 9.59375,14 15,7.90625 C18.7969,3.59375 20.2969,-1.29688 20.2969,-5.40625 C20.2969,-6.29688 20.2031,-7.09375 20.0938,-7.90625 M13.2031,-4 C13.2031,-2.5 12.7969,2.09375 10.2969,5.90625 C8.59375,8.5 5.20313,11.2031 3.29688,12.7031 L3.59375,-6.79688 C3.79688,-7.70313 5.29688,-10.5938 9.29688,-10.5938 C12.9063,-10.5938 13.2031,-7.20313 13.2031,-5.09375 L13.2031,-4 "/>
<path class="Accidental" transform="matrix(0.992126,0,0,0.992126,170.925,186.024)" d="M20.0938,-7.90625 C19.5,-11.7969 17.0938,-15.5 12,-15.5 C7,-15.5 4.09375,-12.4063 3.59375,-11.7969 L4,-43.9063 C4,-44.7031 3.40625,-45.2969 2.59375,-45.2969 L1.40625,-45.2969 C0.59375,-45.2969 0,-44.7031 0,-43.9063 L0.5,16.2031 C0.5,17 1.09375,17.5938 1.90625,17.5938 C2.09375,17.5938 2.5,17.5 2.70313,17.4063 C3.09375,17.2031 9.59375,14 15,7.90625 C18.7969,3.59375 20.2969,-1.29688 20.2969,-5.40625 C20.2969,-6.29688 20.2031,-7.09375 20.0938,-7.90625 M13.2031,-4 C13.2031,-2.5 12.7969,2.09375 10.2969,5.90625 C8.59375,8.5 5.20313,11.2031 3.29688,12.7031 L3.59375,-6.79688 C3.79688,-7.70313 5.29688,-10.5938 9.29688,-10.5938 C12.9063,-10.5938 13.2031,-7.20313 13.2031,-5.09375 L13.2031,-4 "/>
<polyline class="LedgerLine" fill="none" stroke="#000000" stroke-width="3.97" stroke-linejoin="bevel" points="188.581,297.638 242.947,297.638"/>
<path class="Note" transform="matrix(0.992126,0,0,0.992126,197.263,297.638)" d="M18.7031,-13.5938 C4.90625,-13.5938 0,-6.59375 0,-0.09375 C0,6.40625 4.90625,13.4063 18.7031,13.4063 C32.5,13.4063 37.2969,6.40625 37.2969,-0.09375 C37.2969,-6.59375 32.5,-13.5938 18.7031,-13.5938 M10.4063,-4.5 C10.2969,-4.90625 10.2969,-5.29688 10.2969,-5.70313 C10.2969,-6.5 10.5,-7.29688 10.9063,-8 C11.5938,-9 12.7969,-9.70313 14.2969,-10 C15.5938,-10.2969 16.2969,-10.5 18.9063,-10.5 L19,-10.5 C23,-10.5 24.2969,-6.79688 25.4063,-3 L25.7031,-2 C26.5,0.59375 26.9063,2.79688 26.9063,4.5 C26.9063,5.70313 26.7031,6.79688 26.2969,7.59375 C25.7031,8.70313 24.7031,9.40625 23,9.79688 C22.0938,10 20.5938,10.0938 20.5938,10.0938 C20.0938,10.0938 19.7031,10.2031 19.2969,10.2031 C16.0938,10.2031 14.0938,9 12.7031,4.70313 C11.5,1 11.2969,-0.09375 10.4063,-4.5"/>
<path class="Note" transform="matrix(0.992126,0,0,0.992126,197.263,260.433)" d="M18.7031,-13.5938 C4.90625,-13.5938 0,-6.59375 0,-0.09375 C0,6.40625 4.90625,13.4063 18.7031,13.4063 C32.5,13.4063 37.2969,6.40625 37.2969,-0.09375 C37.2969,-6.59375 32.5,-13.5938 18.7031,-13.5938 M10.4063,-4.5 C10.2969,-4.90625 10.2969,-5.29688 10.2969,-5.70313 C10.2969,-6.5 10.5,-7.29688 10.9063,-8 C11.5938,-9 12.7969,-9.70313 14.2969,-10 C15.5938,-10.2969 16.2969,-10.5 18.9063,-10.5 L19,-10.5 C23,-10.5 24.2969,-6.79688 25.4063,-3 L25.7031,-2 C26.5,0.59375 26.9063,2.79688 26.9063,4.5 C26.9063,5.70313 26.7031,6.79688 26.2969,7.59375 C25.7031,8.70313 24.7031,9.40625 23,9.79688 C22.0938,10 20.5938,10.0938 20.5938,10.0938 C20.0938,10.0938 19.7031,10.2031 19.2969,10.2031 C16.0938,10.2031 14.0938,9 12.7031,4.70313 C11.5,1 11.2969,-0.09375 10.4063,-4.5"/>
<path class="Note" transform="matrix(0.992126,0,0,0.992126,197.263,223.228)" d="M18.7031,-13.5938 C4.90625,-13.5938 0,-6.59375 0,-0.09375 C0,6.40625 4.90625,13.4063 18.7031,13.4063 C32.5,13.4063 37.2969,6.40625 37.2969,-0.09375 C37.2969,-6.59375 32.5,-13.5938 18.7031,-13.5938 M10.4063,-4.5 C10.2969,-4.90625 10.2969,-5.29688 10.2969,-5.70313 C10.2969,-6.5 10.5,-7.29688 10.9063,-8 C11.5938,-9 12.7969,-9.70313 14.2969,-10 C15.5938,-10.2969 16.2969,-10.5 18.9063,-10.5 L19,-10.5 C23,-10.5 24.2969,-6.79688 25.4063,-3 L25.7031,-2 C26.5,0.59375 26.9063,2.79688 26.9063,4.5 C26.9063,5.70313 26.7031,6.79688 26.2969,7.59375 C25.7031,8.70313 24.7031,9.40625 23,9.79688 C22.0938,10 20.5938,10.0938 20.5938,10.0938 C20.0938,10.0938 19.7031,10.2031 19.2969,10.2031 C16.0938,10.2031 14.0938,9 12.7031,4.70313 C11.5,1 11.2969,-0.09375 10.4063,-4.5"/>
<path class="Note" transform="matrix(0.992126,0,0,0.992126,197.263,186.024)" d="M18.7031,-13.5938 C4.90625,-13.5938 0,-6.59375 0,-0.09375 C0,6.40625 4.90625,13.4063 18.7031,13.4063 C32.5,13.4063 37.2969,6.40625 37.2969,-0.09375 C37.2969,-6.59375 32.5,-13.5938 18.7031,-13.5938 M10.4063,-4.5 C10.2969,-4.90625 10.2969,-5.29688 10.2969,-5.70313 C10.2969,-6.5 10.5,-7.29688 10.9063,-8 C11.5938,-9 12.7969,-9.70313 14.2969,-10 C15.5938,-10.2969 16.2969,-10.5 18.9063,-10.5 L19,-10.5 C23,-10.5 24.2969,-6.79688 25.4063,-3 L25.7031,-2 C26.5,0.59375 26.9063,2.79688 26.9063,4.5 C26.9063,5.70313 26.7031,6.79688 26.2969,7.59375 C25.7031,8.70313 24.7031,9.40625 23,9.79688 C22.0938,10 20.5938,10.0938 20.5938,10.0938 C20.0938,10.0938 19.7031,10.2031 19.2969,10.2031 C16.0938,10.2031 14.0938,9 12.7031,4.70313 C11.5,1 11.2969,-0.09375 10.4063,-4.5"/>
<path class="Clef" transform="matrix(0.992126,0,0,0.992126,19.8425,248.031)" d="M63.3594,-5.92188 C62.125,-11.3438 59.4844,-15.1719 58.7031,-16.2031 C55.5156,-20.4844 51.5,-23.3281 46.8125,-24.6875 C43.7031,-25.5625 40.7031,-25.6875 38.2813,-25.5 C37.2344,-31.5156 36.2344,-37.3906 35.3281,-42.8438 C40.7813,-49.0156 44.4063,-54.8125 46.6875,-59.1094 C50.1563,-65.6875 51.2969,-70.2656 51.3594,-70.4688 C53.0781,-75.6875 53.4375,-83.3906 52.3281,-91.5938 C51.3281,-99.1406 49.2344,-105.859 46.875,-109.109 C45.8594,-110.531 44.7969,-111.266 43.7656,-111.266 C42.5469,-111.266 40.0313,-110.031 37.1406,-107.25 C34.8438,-105.063 31.5781,-101.172 29.0156,-95.1563 C26.0156,-88.0938 25.7969,-78.6094 26.1563,-71.8906 C26.5313,-64.6094 27.6406,-58.9219 27.6563,-58.875 C27.6719,-58.7813 27.9375,-57.2813 28.375,-54.7188 C28.1563,-54.4844 27.9063,-54.2656 27.6563,-54.0156 C26.625,-53.0156 25.4375,-51.8906 24.0469,-50.5 C23.1875,-49.6406 22.2344,-48.7344 21.2344,-47.7656 C12.7969,-39.625 0,-27.2969 0,-8.14063 C0,-3.4375 0.90625,0.984375 2.6875,5 C4.26563,8.59375 6.5625,11.875 9.5,14.75 C17.2344,22.3125 27.8281,25.5156 34.875,25.3594 C37.8281,25.2813 40.4688,25.0469 42.8594,24.5938 C44.6875,34.2031 45.8281,41.2344 45.8594,46.5781 C45.9063,53.0938 44.25,57.0781 40.3594,59.8438 C37.9219,61.5781 35.1094,62.5313 32.0156,62.6719 C29.4219,62.7969 27.1563,62.3281 25.7344,61.9219 L25.7188,61.9219 C25.7188,61.9219 25.4375,61.8281 25.4219,61.6406 C25.4063,61.4531 25.7656,61.4063 25.7656,61.4063 L25.7969,61.4063 C27.7188,60.9688 31.2813,59.7344 33.6406,56.4375 C35.4375,53.9063 36.3125,49.2813 34.4688,45.3438 C33.3594,42.9531 30.8594,40 25.2344,39.5469 C22.7344,39.3438 20.4688,39.8594 18.4688,41.0625 C16.6563,42.1406 15.1563,43.7813 14.1094,45.7813 C11.6563,50.4844 12.1094,56.2188 15.2344,60.0625 C18.2031,63.6875 22.8125,66 28.25,66.5781 C29.1094,66.6719 29.9531,66.7031 30.7969,66.7031 C35.2344,66.7031 39.625,65.5 43.2031,63.2969 C46.8594,60.7188 48.9844,56.7344 49.6563,51.1094 C50.2188,46.4688 49.8281,40.5469 48.4375,32.4688 C48.0781,30.375 47.5313,27.3438 46.875,23.5938 C52.625,21.6719 56.7813,18.0938 60.5469,12.2344 C63.8438,6.5 64.7813,0.390625 63.3594,-5.92188 M29.1406,20.2969 C24.5,19.0781 20.0625,16.5781 16.3125,13.0625 C15,11.8438 13.125,9.67188 11.6563,6.28125 C10.2969,3.10938 9.625,-0.328125 9.6875,-3.90625 C9.75,-8.60938 11.0625,-13.4375 13.5625,-18.2188 C16.4844,-23.7969 21.0469,-29.3281 27.1094,-34.6563 C28.5625,-35.9375 29.9375,-37.2188 31.2188,-38.5 C31.9844,-34.2344 32.8125,-29.5469 33.6875,-24.6719 C29.8438,-23.4063 25.0938,-20.25 21.9844,-14.5938 C18.4375,-8.03125 18.5781,-2.5 19.3125,0.984375 C20.25,5.4375 22.7813,9.20313 26.2344,11.2969 C27.1719,11.8594 31.2969,13.9844 33.1406,13.4063 C33.5156,13.2969 33.7813,13.0625 33.9219,12.7344 C34.4375,11.5625 33.4063,10.9219 31.8594,9.96875 C31.25,9.59375 30.5781,9.17188 29.8594,8.64063 C26.5313,6.15625 25.0781,1.70313 26.1563,-2.6875 C26.7344,-5.07813 28.0156,-7.25 29.8594,-8.95313 C31.5156,-10.5 33.5625,-11.5938 35.9375,-12.2344 C37.9844,-0.984375 40.0469,10.1719 41.6875,18.5313 C41.8125,19.2188 41.9531,19.8906 42.0781,20.5625 C37.7031,21.5 33.3594,21.4063 29.1406,20.2969 M40.4688,-12.9063 C50.8125,-13.375 55.0781,-5.9375 55.9688,-1.10938 C56.4375,1.4375 56.4375,5.875 54.8906,10.0938 C53.7188,13.2656 51.2656,17.3438 46.125,19.4063 C46.0625,18.9844 45.9844,18.5469 45.9063,18.125 C44.3594,9.34375 42.4219,-1.65625 40.4688,-12.9063 M33.1406,-83.8594 C34.9219,-89.5938 37.6563,-92.8438 39.6563,-94.5781 C41.4063,-96.0938 43.0469,-96.8125 43.9688,-96.8125 C44.1094,-96.8125 44.2344,-96.7813 44.3281,-96.75 C44.7969,-96.6094 45.3281,-96.0469 45.7969,-95.1719 C48.1094,-90.8906 47.3594,-84.1719 46.0156,-79.7344 C44.3906,-74.3281 41.4688,-68.7188 32.6719,-59.1094 C32.5,-60.2188 32.3438,-61.2656 32.1875,-62.25 C30.9375,-70.5313 31.2656,-77.8125 33.1406,-83.8594"/>
<path class="StaffText" d="M232.802,149.819 C232.552,153.022 232.052,154.225 230.802,154.225 C229.349,154.225 228.146,152.116 226.443,146.663 C231.646,142.366 234.349,136.772 234.349,130.366 C234.349,120.069 226.693,111.96 217.052,111.96 C212.943,111.96 209.443,113.272 206.396,116.022 C202.302,119.663 199.896,125.116 199.896,130.819 C199.896,141.319 207.599,149.569 217.396,149.569 C219.099,149.569 220.193,149.413 221.849,148.819 C222.052,154.819 224.552,158.272 228.646,158.272 C232.646,158.272 235.099,155.069 235.052,149.819 L232.802,149.819 M225.146,142.866 C223.849,138.163 220.802,135.569 216.599,135.569 C212.396,135.569 209.396,138.366 209.396,142.366 C209.396,142.522 209.396,142.866 209.443,143.272 C207.443,140.616 206.49,136.616 206.49,130.819 C206.49,125.913 207.349,121.772 209.052,118.71 C210.599,115.913 213.49,114.319 217.099,114.319 C220.896,114.319 224.146,116.163 225.693,119.272 C227.146,122.069 227.755,125.522 227.755,130.663 C227.755,136.522 227.052,139.772 225.146,142.866 M221.646,146.116 C220.146,146.913 218.896,147.225 216.943,147.225 C213.646,147.225 211.693,145.616 211.693,142.866 C211.693,139.913 213.599,137.913 216.349,137.913 C219.896,137.913 221.646,140.663 221.646,146.116 M257.24,149.163 L266.349,148.819 L266.349,146.663 L265.099,146.663 C262.193,146.569 261.943,146.272 261.943,143.022 L261.943,125.522 L252.552,126.069 L252.552,128.225 L255.099,128.225 C256.99,128.272 257.24,128.569 257.24,130.725 L257.24,136.866 C257.24,139.725 256.943,141.413 256.193,143.022 C255.146,145.272 253.146,146.522 250.693,146.522 C249.146,146.522 247.849,145.975 247.193,144.975 C246.552,144.022 246.443,143.522 246.443,140.772 L246.443,125.522 L237.693,126.069 L237.693,128.225 L239.599,128.225 C241.49,128.272 241.74,128.569 241.74,130.725 L241.74,141.522 C241.74,144.069 241.943,145.225 242.693,146.366 C244.052,148.413 246.443,149.569 249.443,149.569 C252.74,149.569 255.052,148.225 257.24,145.022 L257.24,149.163 M290.24,132.725 C290.24,129.569 289.693,127.975 288.24,126.772 C286.599,125.413 284.146,124.772 280.943,124.772 C275.302,124.772 271.193,127.413 271.193,131.069 C271.193,132.913 272.349,134.116 274.099,134.116 C275.693,134.116 276.802,133.069 276.802,131.569 C276.802,130.913 276.552,130.225 276.052,129.522 C275.74,129.163 275.693,129.069 275.693,128.819 C275.693,127.819 277.693,126.913 280.099,126.913 C281.693,126.913 283.443,127.413 284.24,128.163 C285.193,128.975 285.552,130.163 285.552,132.413 L285.552,134.366 C280.349,135.272 278.693,135.663 276.24,136.616 C271.896,138.225 269.849,140.522 269.849,143.725 C269.849,147.319 272.646,149.569 277.099,149.569 C280.552,149.569 283.646,148.163 285.802,145.616 C286.599,148.163 287.849,149.163 290.193,149.163 C292.443,149.163 294.802,147.725 294.802,146.272 C294.802,145.913 294.599,145.663 294.302,145.663 C294.099,145.663 293.896,145.725 293.552,145.866 C292.849,146.163 292.552,146.225 292.146,146.225 C290.74,146.225 290.24,145.319 290.24,142.772 L290.24,132.725 M285.552,138.819 C285.552,141.819 285.396,142.522 284.552,143.819 C283.302,145.663 281.052,146.913 278.849,146.913 C276.552,146.913 274.896,145.272 274.896,143.022 C274.896,140.913 275.943,139.413 278.146,138.366 C279.693,137.663 281.646,137.163 285.552,136.522 L285.552,138.819 M305.552,125.522 L296.693,126.069 L296.693,128.225 L298.74,128.225 C300.646,128.272 300.896,128.569 300.896,130.725 L300.896,142.663 L300.896,145.022 C300.849,145.772 300.802,146.069 300.599,146.319 C300.24,146.772 299.24,146.975 297.099,147.022 L296.896,147.022 L296.896,148.819 L310.24,148.819 L310.24,147.022 L309.349,147.022 C305.99,146.913 305.552,146.663 305.552,144.866 L305.552,142.663 L305.552,142.163 C305.599,133.772 308.599,127.366 312.49,127.163 C311.802,127.975 311.599,128.475 311.599,129.413 C311.599,131.022 312.74,132.163 314.349,132.163 C316.193,132.163 317.396,130.819 317.396,128.819 C317.396,126.366 315.693,124.772 313.052,124.772 C309.896,124.772 307.193,127.272 305.552,131.725 L305.552,125.522 M328.349,125.522 L328.349,115.616 L326.302,115.616 C325.802,122.116 323.599,125.413 319.552,125.725 L319.552,127.663 L323.646,127.663 L323.646,140.413 C323.646,143.913 323.74,145.163 324.24,146.319 C325.052,148.413 327.052,149.569 329.943,149.569 C334.443,149.569 337.349,146.163 337.349,140.866 C337.349,140.569 337.349,140.225 337.302,139.725 L335.193,139.725 C335.052,144.225 333.74,146.522 331.302,146.522 C330.146,146.522 329.146,145.913 328.802,145.069 C328.49,144.366 328.349,143.116 328.349,141.319 L328.349,127.663 L335.693,127.663 L335.693,125.522 L328.349,125.522 M360.24,132.725 C360.24,129.569 359.693,127.975 358.24,126.772 C356.599,125.413 354.146,124.772 350.943,124.772 C345.302,124.772 341.193,127.413 341.193,131.069 C341.193,132.913 342.349,134.116 344.099,134.116 C345.693,134.116 346.802,133.069 346.802,131.569 C346.802,130.913 346.552,130.225 346.052,129.522 C345.74,129.163 345.693,129.069 345.693,128.819 C345.693,127.819 347.693,126.913 350.099,126.913 C351.693,126.913 353.443,127.413 354.24,128.163 C355.193,128.975 355.552,130.163 355.552,132.413 L355.552,134.366 C350.349,135.272 348.693,135.663 346.24,136.616 C341.896,138.225 339.849,140.522 339.849,143.725 C339.849,147.319 342.646,149.569 347.099,149.569 C350.552,149.569 353.646,148.163 355.802,145.616 C356.599,148.163 357.849,149.163 360.193,149.163 C362.443,149.163 364.802,147.725 364.802,146.272 C364.802,145.913 364.599,145.663 364.302,145.663 C364.099,145.663 363.896,145.725 363.552,145.866 C362.849,146.163 362.552,146.225 362.146,146.225 C360.74,146.225 360.24,145.319 360.24,142.772 L360.24,132.725 M355.552,138.819 C355.552,141.819 355.396,142.522 354.552,143.819 C353.302,145.663 351.052,146.913 348.849,146.913 C346.552,146.913 344.896,145.272 344.896,143.022 C344.896,140.913 345.943,139.413 348.146,138.366 C349.693,137.663 351.646,137.163 355.552,136.522 L355.552,138.819 M375.849,111.96 L366.599,112.522 L366.599,114.663 L369.052,114.663 C370.896,114.71 371.146,115.022 371.146,117.163 L371.146,142.663 L371.146,145.022 C371.099,145.772 371.052,146.069 370.849,146.319 C370.49,146.772 369.552,146.975 367.396,147.022 L367.052,147.022 L367.052,148.819 L379.99,148.819 L379.99,147.022 L379.646,147.022 C376.302,146.913 375.849,146.663 375.849,144.866 L375.849,142.663 L375.849,111.96 "/>
</svg>
