<?xml version="1.0" encoding="UTF-8" standalone="no"?>
<svg width="566.929px" height="425.197px" viewBox="0 0 566.929 425.197"
 xmlns="http://www.w3.org/2000/svg" xmlns:xlink="http://www.w3.org/1999/xlink" version="1.2" baseProfile="tiny">
<title>Ginkosynthese Chords Diagram (11)</title>
<desc>Generated by MuseScore 3.6.2</desc>
<polyline class="StaffLines" fill="none" stroke="#000000" stroke-width="2.73" stroke-linejoin="bevel" points="0,173.622 566.929,173.622"/>
<polyline class="StaffLines" fill="none" stroke="#000000" stroke-width="2.73" stroke-linejoin="bevel" points="0,198.425 566.929,198.425"/>
<polyline class="StaffLines" fill="none" stroke="#000000" stroke-width="2.73" stroke-linejoin="bevel" points="0,223.228 566.929,223.228"/>
<polyline class="StaffLines" fill="none" stroke="#000000" stroke-width="2.73" stroke-linejoin="bevel" points="0,248.031 566.929,248.031"/>
<polyline class="StaffLines" fill="none" stroke="#000000" stroke-width="2.73" stroke-linejoin="bevel" points="0,272.835 566.929,272.835"/>
<polyline class="BarLine" fill="none" stroke="#000000" stroke-width="4.46" stroke-linejoin="bevel" points="564.697,172.258 564.697,274.199"/>
<path class="Accidental" transform="matrix(0.992126,0,0,0.992126,145.331,186.024)" d="M20.0938,-7.90625 C19.5,-11.7969 17.0938,-15.5 12,-15.5 C7,-15.5 4.09375,-12.4063 3.59375,-11.7969 L4,-43.9063 C4,-44.7031 3.40625,-45.2969 2.59375,-45.2969 L1.40625,-45.2969 C0.59375,-45.2969 0,-44.7031 0,-43.9063 L0.5,16.2031 C0.5,17 1.09375,17.5938 1.90625,17.5938 C2.09375,17.5938 2.5,17.5 2.70313,17.4063 C3.09375,17.2031 9.59375,14 15,7.90625 C18.7969,3.59375 20.2969,-1.29688 20.2969,-5.40625 C20.2969,-6.29688 20.2031,-7.09375 20.0938,-7.90625 M13.2031,-4 C13.2031,-2.5 12.7969,2.09375 10.2969,5.90625 C8.59375,8.5 5.20313,11.2031 3.29688,12.7031 L3.59375,-6.79688 C3.79688,-7.70313 5.29688,-10.5938 9.29688,-10.5938 C12.9063,-10.5938 13.2031,-7.20313 13.2031,-5.09375 L13.2031,-4 "/>
<polyline class="LedgerLine" fill="none" stroke="#000000" stroke-width="3.97" stroke-linejoin="bevel" points="162.988,297.638 217.353,297.638"/>
<path class="Note" transform="matrix(0.992126,0,0,0.992126,171.669,297.638)" d="M18.7031,-13.5938 C4.90625,-13.5938 0,-6.59375 0,-0.09375 C0,6.40625 4.90625,13.4063 18.7031,13.4063 C32.5,13.4063 37.2969,6.40625 37.2969,-0.09375 C37.2969,-6.59375 32.5,-13.5938 18.7031,-13.5938 M10.4063,-4.5 C10.2969,-4.90625 10.2969,-5.29688 10.2969,-5.70313 C10.2969,-6.5 10.5,-7.29688 10.9063,-8 C11.5938,-9 12.7969,-9.70313 14.2969,-10 C15.5938,-10.2969 16.2969,-10.5 18.9063,-10.5 L19,-10.5 C23,-10.5 24.2969,-6.79688 25.4063,-3 L25.7031,-2 C26.5,0.59375 26.9063,2.79688 26.9063,4.5 C26.9063,5.70313 26.7031,6.79688 26.2969,7.59375 C25.7031,8.70313 24.7031,9.40625 23,9.79688 C22.0938,10 20.5938,10.0938 20.5938,10.0938 C20.0938,10.0938 19.7031,10.2031 19.2969,10.2031 C16.0938,10.2031 14.0938,9 12.7031,4.70313 C11.5,1 11.2969,-0.09375 10.4063,-4.5"/>
<path class="Note" transform="matrix(0.992126,0,0,0.992126,171.669,248.031)" d="M18.7031,-13.5938 C4.90625,-13.5938 0,-6.59375 0,-0.09375 C0,6.40625 4.90625,13.4063 18.7031,13.4063 C32.5,13.4063 37.2969,6.40625 37.2969,-0.09375 C37.2969,-6.59375 32.5,-13.5938 18.7031,-13.5938 M10.4063,-4.5 C10.2969,-4.90625 10.2969,-5.29688 10.2969,-5.70313 C10.2969,-6.5 10.5,-7.29688 10.9063,-8 C11.5938,-9 12.7969,-9.70313 14.2969,-10 C15.5938,-10.2969 16.2969,-10.5 18.9063,-10.5 L19,-10.5 C23,-10.5 24.2969,-6.79688 25.4063,-3 L25.7031,-2 C26.5,0.59375 26.9063,2.79688 26.9063,4.5 C26.9063,5.70313 26.7031,6.79688 26.2969,7.59375 C25.7031,8.70313 24.7031,9.40625 23,9.79688 C22.0938,10 20.5938,10.0938 20.5938,10.0938 C20.0938,10.0938 19.7031,10.2031 19.2969,10.2031 C16.0938,10.2031 14.0938,9 12.7031,4.70313 C11.5,1 11.2969,-0.09375 10.4063,-4.5"/>
<path class="Note" transform="matrix(0.992126,0,0,0.992126,171.669,223.228)" d="M18.7031,-13.5938 C4.90625,-13.5938 0,-6.59375 0,-0.09375 C0,6.40625 4.90625,13.4063 18.7031,13.4063 C32.5,13.4063 37.2969,6.40625 37.2969,-0.09375 C37.2969,-6.59375 32.5,-13.5938 18.7031,-13.5938 M10.4063,-4.5 C10.2969,-4.90625 10.2969,-5.29688 10.2969,-5.70313 C10.2969,-6.5 10.5,-7.29688 10.9063,-8 C11.5938,-9 12.7969,-9.70313 14.2969,-10 C15.5938,-10.2969 16.2969,-10.5 18.9063,-10.5 L19,-10.5 C23,-10.5 24.2969,-6.79688 25.4063,-3 L25.7031,-2 C26.5,0.59375 26.9063,2.79688 26.9063,4.5 C26.9063,5.70313 26.7031,6.79688 26.2969,7.59375 C25.7031,8.70313 24.7031,9.40625 23,9.79688 C22.0938,10 20.5938,10.0938 20.5938,10.0938 C20.0938,10.0938 19.7031,10.2031 19.2969,10.2031 C16.0938,10.2031 14.0938,9 12.7031,4.70313 C11.5,1 11.2969,-0.09375 10.4063,-4.5"/>
<path class="Note" transform="matrix(0.992126,0,0,0.992126,171.669,186.024)" d="M18.7031,-13.5938 C4.90625,-13.5938 0,-6.59375 0,-0.09375 C0,6.40625 4.90625,13.4063 18.7031,13.4063 C32.5,13.4063 37.2969,6.40625 37.2969,-0.09375 C37.2969,-6.59375 32.5,-13.5938 18.7031,-13.5938 M10.4063,-4.5 C10.2969,-4.90625 10.2969,-5.29688 10.2969,-5.70313 C10.2969,-6.5 10.5,-7.29688 10.9063,-8 C11.5938,-9 12.7969,-9.70313 14.2969,-10 C15.5938,-10.2969 16.2969,-10.5 18.9063,-10.5 L19,-10.5 C23,-10.5 24.2969,-6.79688 25.4063,-3 L25.7031,-2 C26.5,0.59375 26.9063,2.79688 26.9063,4.5 C26.9063,5.70313 26.7031,6.79688 26.2969,7.59375 C25.7031,8.70313 24.7031,9.40625 23,9.79688 C22.0938,10 20.5938,10.0938 20.5938,10.0938 C20.0938,10.0938 19.7031,10.2031 19.2969,10.2031 C16.0938,10.2031 14.0938,9 12.7031,4.70313 C11.5,1 11.2969,-0.09375 10.4063,-4.5"/>
<path class="Clef" transform="matrix(0.992126,0,0,0.992126,19.8425,248.031)" d="M63.3594,-5.92188 C62.125,-11.3438 59.4844,-15.1719 58.7031,-16.2031 C55.5156,-20.4844 51.5,-23.3281 46.8125,-24.6875 C43.7031,-25.5625 40.7031,-25.6875 38.2813,-25.5 C37.2344,-31.5156 36.2344,-37.3906 35.3281,-42.8438 C40.7813,-49.0156 44.4063,-54.8125 46.6875,-59.1094 C50.1563,-65.6875 51.2969,-70.2656 51.3594,-70.4688 C53.0781,-75.6875 53.4375,-83.3906 52.3281,-91.5938 C51.3281,-99.1406 49.2344,-105.859 46.875,-109.109 C45.8594,-110.531 44.7969,-111.266 43.7656,-111.266 C42.5469,-111.266 40.0313,-110.031 37.1406,-107.25 C34.8438,-105.063 31.5781,-101.172 29.0156,-95.1563 C26.0156,-88.0938 25.7969,-78.6094 26.1563,-71.8906 C26.5313,-64.6094 27.6406,-58.9219 27.6563,-58.875 C27.6719,-58.7813 27.9375,-57.2813 28.375,-54.7188 C28.1563,-54.4844 27.9063,-54.2656 27.6563,-54.0156 C26.625,-53.0156 25.4375,-51.8906 24.0469,-50.5 C23.1875,-49.6406 22.2344,-48.7344 21.2344,-47.7656 C12.7969,-39.625 0,-27.2969 0,-8.14063 C0,-3.4375 0.90625,0.984375 2.6875,5 C4.26563,8.59375 6.5625,11.875 9.5,14.75 C17.2344,22.3125 27.8281,25.5156 34.875,25.3594 C37.8281,25.2813 40.4688,25.0469 42.8594,24.5938 C44.6875,34.2031 45.8281,41.2344 45.8594,46.5781 C45.9063,53.0938 44.25,57.0781 40.3594,59.8438 C37.9219,61.5781 35.1094,62.5313 32.0156,62.6719 C29.4219,62.7969 27.1563,62.3281 25.7344,61.9219 L25.7188,61.9219 C25.7188,61.9219 25.4375,61.8281 25.4219,61.6406 C25.4063,61.4531 25.7656,61.4063 25.7656,61.4063 L25.7969,61.4063 C27.7188,60.9688 31.2813,59.7344 33.6406,56.4375 C35.4375,53.9063 36.3125,49.2813 34.4688,45.3438 C33.3594,42.9531 30.8594,40 25.2344,39.5469 C22.7344,39.3438 20.4688,39.8594 18.4688,41.0625 C16.6563,42.1406 15.1563,43.7813 14.1094,45.7813 C11.6563,50.4844 12.1094,56.2188 15.2344,60.0625 C18.2031,63.6875 22.8125,66 28.25,66.5781 C29.1094,66.6719 29.9531,66.7031 30.7969,66.7031 C35.2344,66.7031 39.625,65.5 43.2031,63.2969 C46.8594,60.7188 48.9844,56.7344 49.6563,51.1094 C50.2188,46.4688 49.8281,40.5469 48.4375,32.4688 C48.0781,30.375 47.5313,27.3438 46.875,23.5938 C52.625,21.6719 56.7813,18.0938 60.5469,12.2344 C63.8438,6.5 64.7813,0.390625 63.3594,-5.92188 M29.1406,20.2969 C24.5,19.0781 20.0625,16.5781 16.3125,13.0625 C15,11.8438 13.125,9.67188 11.6563,6.28125 C10.2969,3.10938 9.625,-0.328125 9.6875,-3.90625 C9.75,-8.60938 11.0625,-13.4375 13.5625,-18.2188 C16.4844,-23.7969 21.0469,-29.3281 27.1094,-34.6563 C28.5625,-35.9375 29.9375,-37.2188 31.2188,-38.5 C31.9844,-34.2344 32.8125,-29.5469 33.6875,-24.6719 C29.8438,-23.4063 25.0938,-20.25 21.9844,-14.5938 C18.4375,-8.03125 18.5781,-2.5 19.3125,0.984375 C20.25,5.4375 22.7813,9.20313 26.2344,11.2969 C27.1719,11.8594 31.2969,13.9844 33.1406,13.4063 C33.5156,13.2969 33.7813,13.0625 33.9219,12.7344 C34.4375,11.5625 33.4063,10.9219 31.8594,9.96875 C31.25,9.59375 30.5781,9.17188 29.8594,8.64063 C26.5313,6.15625 25.0781,1.70313 26.1563,-2.6875 C26.7344,-5.07813 28.0156,-7.25 29.8594,-8.95313 C31.5156,-10.5 33.5625,-11.5938 35.9375,-12.2344 C37.9844,-0.984375 40.0469,10.1719 41.6875,18.5313 C41.8125,19.2188 41.9531,19.8906 42.0781,20.5625 C37.7031,21.5 33.3594,21.4063 29.1406,20.2969 M40.4688,-12.9063 C50.8125,-13.375 55.0781,-5.9375 55.9688,-1.10938 C56.4375,1.4375 56.4375,5.875 54.8906,10.0938 C53.7188,13.2656 51.2656,17.3438 46.125,19.4063 C46.0625,18.9844 45.9844,18.5469 45.9063,18.125 C44.3594,9.34375 42.4219,-1.65625 40.4688,-12.9063 M33.1406,-83.8594 C34.9219,-89.5938 37.6563,-92.8438 39.6563,-94.5781 C41.4063,-96.0938 43.0469,-96.8125 43.9688,-96.8125 C44.1094,-96.8125 44.2344,-96.7813 44.3281,-96.75 C44.7969,-96.6094 45.3281,-96.0469 45.7969,-95.1719 C48.1094,-90.8906 47.3594,-84.1719 46.0156,-79.7344 C44.3906,-74.3281 41.4688,-68.7188 32.6719,-59.1094 C32.5,-60.2188 32.3438,-61.2656 32.1875,-62.25 C30.9375,-70.5313 31.2656,-77.8125 33.1406,-83.8594"/>
<path class="StaffText" d="M187.396,112.71 L174.505,112.71 L174.505,115.069 L175.458,115.069 C178.302,115.116 179.255,115.272 179.599,115.772 C179.958,116.21 179.958,116.272 179.958,118.866 L179.958,138.022 C179.958,144.819 179.005,146.225 174.146,146.475 L174.146,148.819 L188.396,148.819 L188.396,146.475 C183.599,146.225 182.646,144.819 182.646,138.022 L182.646,115.913 L194.552,148.819 L196.552,148.819 L207.708,115.913 L207.708,142.663 C207.708,145.225 207.708,145.319 207.412,145.819 C207.005,146.319 206.052,146.475 203.208,146.475 L202.302,146.475 L202.302,148.819 L218.708,148.819 L218.708,146.475 L217.802,146.475 C214.958,146.475 214.005,146.319 213.599,145.819 C213.302,145.319 213.302,145.272 213.302,142.663 L213.302,118.866 C213.302,116.319 213.302,116.21 213.599,115.772 C214.005,115.272 214.958,115.116 217.802,115.069 L218.708,115.069 L218.708,112.71 L206.162,112.71 L197.005,139.366 L187.396,112.71 M230.349,125.522 L220.958,126.069 L220.958,128.225 L223.505,128.225 C225.396,128.272 225.646,128.569 225.646,130.725 L225.646,142.663 L225.646,145.022 C225.599,145.772 225.552,146.069 225.349,146.319 C225.005,146.772 224.052,146.975 221.896,147.022 L221.552,147.022 L221.552,148.819 L234.505,148.819 L234.505,147.022 L234.146,147.022 C230.802,146.913 230.349,146.663 230.349,144.866 L230.349,142.663 L230.349,125.522 M228.005,113.069 C226.396,113.069 225.099,114.366 225.099,115.96 C225.099,117.569 226.396,118.866 227.958,118.866 C229.599,118.866 230.896,117.569 230.896,115.96 C230.896,114.366 229.599,113.069 228.005,113.069 M246.052,125.522 L237.396,126.069 L237.396,128.225 L239.208,128.225 C241.099,128.272 241.349,128.569 241.349,130.725 L241.349,142.663 L241.349,143.866 L241.349,145.022 C241.302,145.772 241.255,146.069 241.052,146.319 C240.708,146.772 239.755,146.975 237.599,147.022 L237.396,147.022 L237.396,148.819 L250.052,148.819 L250.052,147.022 L249.849,147.022 C246.505,146.913 246.052,146.663 246.052,144.866 L246.052,142.663 L246.052,137.475 C246.052,135.022 246.396,132.772 246.958,131.616 C248.005,129.366 250.255,127.819 252.396,127.819 C253.708,127.819 255.208,128.522 255.958,129.569 C256.708,130.663 257.052,132.163 257.052,134.569 L257.052,142.663 L257.052,145.022 C257.005,145.772 256.958,146.069 256.755,146.319 C256.396,146.772 255.396,146.975 253.255,147.022 L253.052,147.022 L253.052,148.819 L265.708,148.819 L265.708,147.022 L265.505,147.022 C262.208,146.913 261.755,146.663 261.755,144.866 L261.755,142.663 L261.755,134.819 C261.755,131.225 261.599,130.319 260.708,128.616 C259.458,126.225 256.958,124.772 253.958,124.772 C250.708,124.772 248.255,126.272 246.052,129.569 L246.052,125.522 M279.646,124.772 C273.505,124.772 268.755,130.225 268.755,137.225 C268.755,144.069 273.552,149.569 279.552,149.569 C285.552,149.569 290.349,144.069 290.349,137.163 C290.349,130.319 285.552,124.772 279.646,124.772 M279.646,126.913 C283.146,126.913 285.099,130.569 285.099,137.163 C285.099,143.819 283.146,147.413 279.552,147.413 C275.958,147.413 274.005,143.819 274.005,137.225 C274.005,130.413 275.896,126.913 279.646,126.913 M301.958,125.522 L293.099,126.069 L293.099,128.225 L295.146,128.225 C297.052,128.272 297.302,128.569 297.302,130.725 L297.302,142.663 L297.302,145.022 C297.255,145.772 297.208,146.069 297.005,146.319 C296.646,146.772 295.646,146.975 293.505,147.022 L293.302,147.022 L293.302,148.819 L306.646,148.819 L306.646,147.022 L305.755,147.022 C302.396,146.913 301.958,146.663 301.958,144.866 L301.958,142.663 L301.958,142.163 C302.005,133.772 305.005,127.366 308.896,127.163 C308.208,127.975 308.005,128.475 308.005,129.413 C308.005,131.022 309.146,132.163 310.755,132.163 C312.599,132.163 313.802,130.819 313.802,128.819 C313.802,126.366 312.099,124.772 309.458,124.772 C306.302,124.772 303.599,127.272 301.958,131.725 L301.958,125.522 M342.396,112.71 L329.505,112.71 L329.505,115.069 L330.458,115.069 C333.302,115.116 334.255,115.272 334.599,115.772 C334.958,116.21 334.958,116.272 334.958,118.866 L334.958,138.022 C334.958,144.819 334.005,146.225 329.146,146.475 L329.146,148.819 L343.396,148.819 L343.396,146.475 C338.599,146.225 337.646,144.819 337.646,138.022 L337.646,115.913 L349.552,148.819 L351.552,148.819 L362.708,115.913 L362.708,142.663 C362.708,145.225 362.708,145.319 362.412,145.819 C362.005,146.319 361.052,146.475 358.208,146.475 L357.302,146.475 L357.302,148.819 L373.708,148.819 L373.708,146.475 L372.802,146.475 C369.958,146.475 369.005,146.319 368.599,145.819 C368.302,145.319 368.302,145.272 368.302,142.663 L368.302,118.866 C368.302,116.319 368.302,116.21 368.599,115.772 C369.005,115.272 369.958,115.116 372.802,115.069 L373.708,115.069 L373.708,112.71 L361.162,112.71 L352.005,139.366 L342.396,112.71 M397.646,132.725 C397.646,129.569 397.099,127.975 395.646,126.772 C394.005,125.413 391.552,124.772 388.349,124.772 C382.708,124.772 378.599,127.413 378.599,131.069 C378.599,132.913 379.755,134.116 381.505,134.116 C383.099,134.116 384.208,133.069 384.208,131.569 C384.208,130.913 383.958,130.225 383.458,129.522 C383.146,129.163 383.099,129.069 383.099,128.819 C383.099,127.819 385.099,126.913 387.505,126.913 C389.099,126.913 390.849,127.413 391.646,128.163 C392.599,128.975 392.958,130.163 392.958,132.413 L392.958,134.366 C387.755,135.272 386.099,135.663 383.646,136.616 C379.302,138.225 377.255,140.522 377.255,143.725 C377.255,147.319 380.052,149.569 384.505,149.569 C387.958,149.569 391.052,148.163 393.208,145.616 C394.005,148.163 395.255,149.163 397.599,149.163 C399.849,149.163 402.208,147.725 402.208,146.272 C402.208,145.913 402.005,145.663 401.708,145.663 C401.505,145.663 401.302,145.725 400.958,145.866 C400.255,146.163 399.958,146.225 399.552,146.225 C398.146,146.225 397.646,145.319 397.646,142.772 L397.646,132.725 M392.958,138.819 C392.958,141.819 392.802,142.522 391.958,143.819 C390.708,145.663 388.458,146.913 386.255,146.913 C383.958,146.913 382.302,145.272 382.302,143.022 C382.302,140.913 383.349,139.413 385.552,138.366 C387.099,137.663 389.052,137.163 392.958,136.522 L392.958,138.819 M412.396,125.522 L402.646,126.069 L402.646,128.225 L405.552,128.225 C407.458,128.272 407.708,128.569 407.708,130.725 L407.708,147.663 C407.708,151.725 407.458,153.616 406.755,155.069 C406.255,156.069 405.099,156.819 404.005,156.819 C403.302,156.819 402.755,156.522 402.755,156.163 C402.755,155.975 402.802,155.866 403.005,155.366 C403.255,154.866 403.349,154.522 403.349,154.163 C403.349,152.913 402.146,151.819 400.755,151.819 C399.146,151.819 397.958,153.069 397.958,154.819 C397.958,157.272 400.208,158.913 403.552,158.913 C406.349,158.913 408.896,157.725 410.349,155.663 C411.896,153.475 412.396,150.913 412.396,145.272 L412.396,125.522 M410.052,113.069 C408.458,113.069 407.146,114.366 407.146,115.96 C407.146,117.569 408.458,118.866 410.005,118.866 C411.646,118.866 412.958,117.569 412.958,115.96 C412.958,114.366 411.646,113.069 410.052,113.069 M429.646,124.772 C423.505,124.772 418.755,130.225 418.755,137.225 C418.755,144.069 423.552,149.569 429.552,149.569 C435.552,149.569 440.349,144.069 440.349,137.163 C440.349,130.319 435.552,124.772 429.646,124.772 M429.646,126.913 C433.146,126.913 435.099,130.569 435.099,137.163 C435.099,143.819 433.146,147.413 429.552,147.413 C425.958,147.413 424.005,143.819 424.005,137.225 C424.005,130.413 425.896,126.913 429.646,126.913 M451.958,125.522 L443.099,126.069 L443.099,128.225 L445.146,128.225 C447.052,128.272 447.302,128.569 447.302,130.725 L447.302,142.663 L447.302,145.022 C447.255,145.772 447.208,146.069 447.005,146.319 C446.646,146.772 445.646,146.975 443.505,147.022 L443.302,147.022 L443.302,148.819 L456.646,148.819 L456.646,147.022 L455.755,147.022 C452.396,146.913 451.958,146.663 451.958,144.866 L451.958,142.663 L451.958,142.163 C452.005,133.772 455.005,127.366 458.896,127.163 C458.208,127.975 458.005,128.475 458.005,129.413 C458.005,131.022 459.146,132.163 460.755,132.163 C462.599,132.163 463.802,130.819 463.802,128.819 C463.802,126.366 462.099,124.772 459.458,124.772 C456.302,124.772 453.599,127.272 451.958,131.725 L451.958,125.522 M481.005,125.725 L483.208,126.069 L484.099,122.116 C484.849,118.819 485.208,118.319 486.646,118.319 C486.896,118.319 487.302,118.319 487.755,118.366 C493.896,118.663 493.896,118.663 496.208,118.663 C496.849,118.663 498.005,118.663 499.396,118.616 L496.005,125.475 C492.302,132.819 491.849,133.725 490.599,136.819 C489.052,140.569 488.255,143.725 488.255,145.819 C488.255,148.116 489.458,149.522 491.396,149.522 C493.802,149.522 494.755,147.913 494.708,143.569 C494.458,136.366 495.349,132.866 500.708,121.163 C501.458,119.569 502.208,118.022 502.958,116.46 C503.005,116.366 503.146,115.913 503.458,115.272 L503.458,113.819 C500.458,114.069 498.849,114.163 495.755,114.163 C491.396,114.163 487.958,114.022 482.552,113.616 L481.005,125.725 M515.755,125.522 L515.755,115.616 L513.708,115.616 C513.208,122.116 511.005,125.413 506.958,125.725 L506.958,127.663 L511.052,127.663 L511.052,140.413 C511.052,143.913 511.146,145.163 511.646,146.319 C512.458,148.413 514.458,149.569 517.349,149.569 C521.849,149.569 524.755,146.163 524.755,140.866 C524.755,140.569 524.755,140.225 524.708,139.725 L522.599,139.725 C522.458,144.225 521.146,146.522 518.708,146.522 C517.552,146.522 516.552,145.913 516.208,145.069 C515.896,144.366 515.755,143.116 515.755,141.319 L515.755,127.663 L523.099,127.663 L523.099,125.522 L515.755,125.522 M535.052,111.96 L525.802,112.522 L525.802,114.663 L528.208,114.663 C530.099,114.71 530.349,115.022 530.349,117.163 L530.349,142.663 L530.349,143.866 L530.349,145.069 C530.302,145.772 530.255,146.069 530.052,146.319 C529.708,146.772 528.755,146.975 526.599,147.022 L526.396,147.022 L526.396,148.819 L539.052,148.819 L539.052,147.022 L538.849,147.022 C535.505,146.913 535.052,146.663 535.052,144.866 L535.052,142.663 L535.052,137.475 C535.052,135.022 535.396,132.772 535.958,131.616 C537.052,129.366 539.255,127.819 541.396,127.819 C542.708,127.819 544.208,128.569 544.896,129.569 C545.708,130.663 546.052,132.163 546.052,134.616 L546.052,142.663 L546.052,145.069 C546.005,145.772 545.958,146.069 545.755,146.319 C545.396,146.772 544.396,146.975 542.255,147.022 L542.052,147.022 L542.052,148.819 L554.708,148.819 L554.708,147.022 L554.505,147.022 C551.208,146.913 550.755,146.663 550.755,144.866 L550.755,142.663 L550.755,134.819 C550.755,131.225 550.599,130.319 549.708,128.616 C548.458,126.163 545.958,124.772 542.958,124.772 C539.708,124.772 537.302,126.225 535.052,129.569 L535.052,111.96 "/>
</svg>
