<?xml version="1.0" encoding="UTF-8" standalone="no"?>
<svg width="566.929px" height="425.197px" viewBox="0 0 566.929 425.197"
 xmlns="http://www.w3.org/2000/svg" xmlns:xlink="http://www.w3.org/1999/xlink" version="1.2" baseProfile="tiny">
<title>Ginkosynthese Chords Diagram (12)</title>
<desc>Generated by MuseScore 3.6.2</desc>
<polyline class="StaffLines" fill="none" stroke="#000000" stroke-width="2.73" stroke-linejoin="bevel" points="0,173.622 566.929,173.622"/>
<polyline class="StaffLines" fill="none" stroke="#000000" stroke-width="2.73" stroke-linejoin="bevel" points="0,198.425 566.929,198.425"/>
<polyline class="StaffLines" fill="none" stroke="#000000" stroke-width="2.73" stroke-linejoin="bevel" points="0,223.228 566.929,223.228"/>
<polyline class="StaffLines" fill="none" stroke="#000000" stroke-width="2.73" stroke-linejoin="bevel" points="0,248.031 566.929,248.031"/>
<polyline class="StaffLines" fill="none" stroke="#000000" stroke-width="2.73" stroke-linejoin="bevel" points="0,272.835 566.929,272.835"/>
<polyline class="BarLine" fill="none" stroke="#000000" stroke-width="4.46" stroke-linejoin="bevel" points="542.746,172.258 542.746,274.199"/>
<polyline class="BarLine" fill="none" stroke="#000000" stroke-width="13.64" stroke-linejoin="bevel" points="560.108,172.258 560.108,274.199"/>
<path class="Accidental" transform="matrix(0.992126,0,0,0.992126,145.331,248.031)" d="M23.2969,-10.5938 C23.9063,-10.7031 24.4063,-11.4063 24.4063,-12 L24.4063,-17.9063 C24.4063,-18.7031 23.7969,-19.2969 23,-19.2969 L22.7969,-19.2969 L19.5,-18.5938 L19.5,-33.5 L16.7031,-33.5 L16.7031,-18 L7.79688,-16.2031 L7.79688,-30.2969 L5,-30.2969 L5,-15.5938 L1.09375,-14.7969 C0.5,-14.7031 0,-14 0,-13.4063 L0,-13.2031 L0,-7.40625 L0,-7.59375 C0,-6.79688 0.59375,-6.20313 1.40625,-6.20313 L1.70313,-6.20313 L5,-6.90625 L5,9.59375 L1.09375,10.4063 C0.5,10.5 0,11.2031 0,11.7969 L0,17.5938 C0,18.4063 0.59375,19 1.40625,19 L1.70313,19 L5,18.2969 L5,33.2031 L7.79688,33.2031 L7.79688,17.7031 L16.7031,15.9063 L16.7031,30 L19.5,30 L19.5,15.2969 L23.2969,14.5938 C23.9063,14.5 24.4063,13.7969 24.4063,13.2031 L24.4063,7.29688 C24.4063,6.5 23.7969,5.90625 23,5.90625 L22.7969,5.90625 L19.5,6.59375 L19.5,-9.90625 L23.2969,-10.5938 M7.79688,9.09375 L7.79688,-7.5 L16.7031,-9.29688 L16.7031,7.20313 L7.79688,9.09375 "/>
<polyline class="LedgerLine" fill="none" stroke="#000000" stroke-width="3.97" stroke-linejoin="bevel" points="167.057,297.638 221.422,297.638"/>
<path class="Note" transform="matrix(0.992126,0,0,0.992126,175.738,297.638)" d="M18.7031,-13.5938 C4.90625,-13.5938 0,-6.59375 0,-0.09375 C0,6.40625 4.90625,13.4063 18.7031,13.4063 C32.5,13.4063 37.2969,6.40625 37.2969,-0.09375 C37.2969,-6.59375 32.5,-13.5938 18.7031,-13.5938 M10.4063,-4.5 C10.2969,-4.90625 10.2969,-5.29688 10.2969,-5.70313 C10.2969,-6.5 10.5,-7.29688 10.9063,-8 C11.5938,-9 12.7969,-9.70313 14.2969,-10 C15.5938,-10.2969 16.2969,-10.5 18.9063,-10.5 L19,-10.5 C23,-10.5 24.2969,-6.79688 25.4063,-3 L25.7031,-2 C26.5,0.59375 26.9063,2.79688 26.9063,4.5 C26.9063,5.70313 26.7031,6.79688 26.2969,7.59375 C25.7031,8.70313 24.7031,9.40625 23,9.79688 C22.0938,10 20.5938,10.0938 20.5938,10.0938 C20.0938,10.0938 19.7031,10.2031 19.2969,10.2031 C16.0938,10.2031 14.0938,9 12.7031,4.70313 C11.5,1 11.2969,-0.09375 10.4063,-4.5"/>
<path class="Note" transform="matrix(0.992126,0,0,0.992126,175.738,248.031)" d="M18.7031,-13.5938 C4.90625,-13.5938 0,-6.59375 0,-0.09375 C0,6.40625 4.90625,13.4063 18.7031,13.4063 C32.5,13.4063 37.2969,6.40625 37.2969,-0.09375 C37.2969,-6.59375 32.5,-13.5938 18.7031,-13.5938 M10.4063,-4.5 C10.2969,-4.90625 10.2969,-5.29688 10.2969,-5.70313 C10.2969,-6.5 10.5,-7.29688 10.9063,-8 C11.5938,-9 12.7969,-9.70313 14.2969,-10 C15.5938,-10.2969 16.2969,-10.5 18.9063,-10.5 L19,-10.5 C23,-10.5 24.2969,-6.79688 25.4063,-3 L25.7031,-2 C26.5,0.59375 26.9063,2.79688 26.9063,4.5 C26.9063,5.70313 26.7031,6.79688 26.2969,7.59375 C25.7031,8.70313 24.7031,9.40625 23,9.79688 C22.0938,10 20.5938,10.0938 20.5938,10.0938 C20.0938,10.0938 19.7031,10.2031 19.2969,10.2031 C16.0938,10.2031 14.0938,9 12.7031,4.70313 C11.5,1 11.2969,-0.09375 10.4063,-4.5"/>
<path class="Note" transform="matrix(0.992126,0,0,0.992126,175.738,210.827)" d="M18.7031,-13.5938 C4.90625,-13.5938 0,-6.59375 0,-0.09375 C0,6.40625 4.90625,13.4063 18.7031,13.4063 C32.5,13.4063 37.2969,6.40625 37.2969,-0.09375 C37.2969,-6.59375 32.5,-13.5938 18.7031,-13.5938 M10.4063,-4.5 C10.2969,-4.90625 10.2969,-5.29688 10.2969,-5.70313 C10.2969,-6.5 10.5,-7.29688 10.9063,-8 C11.5938,-9 12.7969,-9.70313 14.2969,-10 C15.5938,-10.2969 16.2969,-10.5 18.9063,-10.5 L19,-10.5 C23,-10.5 24.2969,-6.79688 25.4063,-3 L25.7031,-2 C26.5,0.59375 26.9063,2.79688 26.9063,4.5 C26.9063,5.70313 26.7031,6.79688 26.2969,7.59375 C25.7031,8.70313 24.7031,9.40625 23,9.79688 C22.0938,10 20.5938,10.0938 20.5938,10.0938 C20.0938,10.0938 19.7031,10.2031 19.2969,10.2031 C16.0938,10.2031 14.0938,9 12.7031,4.70313 C11.5,1 11.2969,-0.09375 10.4063,-4.5"/>
<path class="Note" transform="matrix(0.992126,0,0,0.992126,175.738,186.024)" d="M18.7031,-13.5938 C4.90625,-13.5938 0,-6.59375 0,-0.09375 C0,6.40625 4.90625,13.4063 18.7031,13.4063 C32.5,13.4063 37.2969,6.40625 37.2969,-0.09375 C37.2969,-6.59375 32.5,-13.5938 18.7031,-13.5938 M10.4063,-4.5 C10.2969,-4.90625 10.2969,-5.29688 10.2969,-5.70313 C10.2969,-6.5 10.5,-7.29688 10.9063,-8 C11.5938,-9 12.7969,-9.70313 14.2969,-10 C15.5938,-10.2969 16.2969,-10.5 18.9063,-10.5 L19,-10.5 C23,-10.5 24.2969,-6.79688 25.4063,-3 L25.7031,-2 C26.5,0.59375 26.9063,2.79688 26.9063,4.5 C26.9063,5.70313 26.7031,6.79688 26.2969,7.59375 C25.7031,8.70313 24.7031,9.40625 23,9.79688 C22.0938,10 20.5938,10.0938 20.5938,10.0938 C20.0938,10.0938 19.7031,10.2031 19.2969,10.2031 C16.0938,10.2031 14.0938,9 12.7031,4.70313 C11.5,1 11.2969,-0.09375 10.4063,-4.5"/>
<path class="Clef" transform="matrix(0.992126,0,0,0.992126,19.8425,248.031)" d="M63.3594,-5.92188 C62.125,-11.3438 59.4844,-15.1719 58.7031,-16.2031 C55.5156,-20.4844 51.5,-23.3281 46.8125,-24.6875 C43.7031,-25.5625 40.7031,-25.6875 38.2813,-25.5 C37.2344,-31.5156 36.2344,-37.3906 35.3281,-42.8438 C40.7813,-49.0156 44.4063,-54.8125 46.6875,-59.1094 C50.1563,-65.6875 51.2969,-70.2656 51.3594,-70.4688 C53.0781,-75.6875 53.4375,-83.3906 52.3281,-91.5938 C51.3281,-99.1406 49.2344,-105.859 46.875,-109.109 C45.8594,-110.531 44.7969,-111.266 43.7656,-111.266 C42.5469,-111.266 40.0313,-110.031 37.1406,-107.25 C34.8438,-105.063 31.5781,-101.172 29.0156,-95.1563 C26.0156,-88.0938 25.7969,-78.6094 26.1563,-71.8906 C26.5313,-64.6094 27.6406,-58.9219 27.6563,-58.875 C27.6719,-58.7813 27.9375,-57.2813 28.375,-54.7188 C28.1563,-54.4844 27.9063,-54.2656 27.6563,-54.0156 C26.625,-53.0156 25.4375,-51.8906 24.0469,-50.5 C23.1875,-49.6406 22.2344,-48.7344 21.2344,-47.7656 C12.7969,-39.625 0,-27.2969 0,-8.14063 C0,-3.4375 0.90625,0.984375 2.6875,5 C4.26563,8.59375 6.5625,11.875 9.5,14.75 C17.2344,22.3125 27.8281,25.5156 34.875,25.3594 C37.8281,25.2813 40.4688,25.0469 42.8594,24.5938 C44.6875,34.2031 45.8281,41.2344 45.8594,46.5781 C45.9063,53.0938 44.25,57.0781 40.3594,59.8438 C37.9219,61.5781 35.1094,62.5313 32.0156,62.6719 C29.4219,62.7969 27.1563,62.3281 25.7344,61.9219 L25.7188,61.9219 C25.7188,61.9219 25.4375,61.8281 25.4219,61.6406 C25.4063,61.4531 25.7656,61.4063 25.7656,61.4063 L25.7969,61.4063 C27.7188,60.9688 31.2813,59.7344 33.6406,56.4375 C35.4375,53.9063 36.3125,49.2813 34.4688,45.3438 C33.3594,42.9531 30.8594,40 25.2344,39.5469 C22.7344,39.3438 20.4688,39.8594 18.4688,41.0625 C16.6563,42.1406 15.1563,43.7813 14.1094,45.7813 C11.6563,50.4844 12.1094,56.2188 15.2344,60.0625 C18.2031,63.6875 22.8125,66 28.25,66.5781 C29.1094,66.6719 29.9531,66.7031 30.7969,66.7031 C35.2344,66.7031 39.625,65.5 43.2031,63.2969 C46.8594,60.7188 48.9844,56.7344 49.6563,51.1094 C50.2188,46.4688 49.8281,40.5469 48.4375,32.4688 C48.0781,30.375 47.5313,27.3438 46.875,23.5938 C52.625,21.6719 56.7813,18.0938 60.5469,12.2344 C63.8438,6.5 64.7813,0.390625 63.3594,-5.92188 M29.1406,20.2969 C24.5,19.0781 20.0625,16.5781 16.3125,13.0625 C15,11.8438 13.125,9.67188 11.6563,6.28125 C10.2969,3.10938 9.625,-0.328125 9.6875,-3.90625 C9.75,-8.60938 11.0625,-13.4375 13.5625,-18.2188 C16.4844,-23.7969 21.0469,-29.3281 27.1094,-34.6563 C28.5625,-35.9375 29.9375,-37.2188 31.2188,-38.5 C31.9844,-34.2344 32.8125,-29.5469 33.6875,-24.6719 C29.8438,-23.4063 25.0938,-20.25 21.9844,-14.5938 C18.4375,-8.03125 18.5781,-2.5 19.3125,0.984375 C20.25,5.4375 22.7813,9.20313 26.2344,11.2969 C27.1719,11.8594 31.2969,13.9844 33.1406,13.4063 C33.5156,13.2969 33.7813,13.0625 33.9219,12.7344 C34.4375,11.5625 33.4063,10.9219 31.8594,9.96875 C31.25,9.59375 30.5781,9.17188 29.8594,8.64063 C26.5313,6.15625 25.0781,1.70313 26.1563,-2.6875 C26.7344,-5.07813 28.0156,-7.25 29.8594,-8.95313 C31.5156,-10.5 33.5625,-11.5938 35.9375,-12.2344 C37.9844,-0.984375 40.0469,10.1719 41.6875,18.5313 C41.8125,19.2188 41.9531,19.8906 42.0781,20.5625 C37.7031,21.5 33.3594,21.4063 29.1406,20.2969 M40.4688,-12.9063 C50.8125,-13.375 55.0781,-5.9375 55.9688,-1.10938 C56.4375,1.4375 56.4375,5.875 54.8906,10.0938 C53.7188,13.2656 51.2656,17.3438 46.125,19.4063 C46.0625,18.9844 45.9844,18.5469 45.9063,18.125 C44.3594,9.34375 42.4219,-1.65625 40.4688,-12.9063 M33.1406,-83.8594 C34.9219,-89.5938 37.6563,-92.8438 39.6563,-94.5781 C41.4063,-96.0938 43.0469,-96.8125 43.9688,-96.8125 C44.1094,-96.8125 44.2344,-96.7813 44.3281,-96.75 C44.7969,-96.6094 45.3281,-96.0469 45.7969,-95.1719 C48.1094,-90.8906 47.3594,-84.1719 46.0156,-79.7344 C44.3906,-74.3281 41.4688,-68.7188 32.6719,-59.1094 C32.5,-60.2188 32.3438,-61.2656 32.1875,-62.25 C30.9375,-70.5313 31.2656,-77.8125 33.1406,-83.8594"/>
<path class="StaffText" d="M198.028,112.022 L195.918,112.022 L184.418,141.163 C183.075,145.069 181.778,146.272 178.918,146.475 L178.715,146.475 L178.715,148.819 L191.965,148.819 L191.965,146.475 L190.965,146.475 C188.278,146.475 186.918,145.522 186.918,143.616 C186.918,142.975 187.075,142.366 187.371,141.522 L189.028,137.116 L202.278,137.116 L204.981,143.819 C205.278,144.616 205.371,144.913 205.371,145.163 C205.371,145.975 204.121,146.475 202.278,146.475 L200.168,146.475 L200.168,148.819 L215.668,148.819 L215.668,146.475 L214.981,146.475 C212.371,146.413 211.918,146.116 210.778,143.272 L198.028,112.022 M195.575,120.21 L201.215,134.413 L190.028,134.413 L195.575,120.21 M234.715,149.163 L243.825,148.819 L243.825,146.663 L242.575,146.663 C239.668,146.569 239.418,146.272 239.418,143.022 L239.418,125.522 L230.028,126.069 L230.028,128.225 L232.575,128.225 C234.465,128.272 234.715,128.569 234.715,130.725 L234.715,136.866 C234.715,139.725 234.418,141.413 233.668,143.022 C232.621,145.272 230.621,146.522 228.168,146.522 C226.621,146.522 225.325,145.975 224.668,144.975 C224.028,144.022 223.918,143.522 223.918,140.772 L223.918,125.522 L215.168,126.069 L215.168,128.225 L217.075,128.225 C218.965,128.272 219.215,128.569 219.215,130.725 L219.215,141.522 C219.215,144.069 219.418,145.225 220.168,146.366 C221.528,148.413 223.918,149.569 226.918,149.569 C230.215,149.569 232.528,148.225 234.715,145.022 L234.715,149.163 M254.918,145.116 C252.168,145.069 252.028,145.022 251.418,144.663 C251.075,144.475 250.825,143.913 250.825,143.366 C250.825,141.866 252.168,141.225 255.528,141.116 C260.215,141.022 260.965,140.913 262.668,140.163 C265.668,138.819 267.325,136.225 267.325,132.913 C267.325,130.913 266.871,129.663 265.528,128.022 C266.371,127.116 266.825,126.819 267.215,126.819 C267.465,126.819 267.621,126.975 267.715,127.522 C267.918,128.725 268.715,129.366 269.965,129.366 C271.278,129.366 272.231,128.319 272.231,126.975 C272.231,125.272 270.871,124.069 268.918,124.069 C267.325,124.069 266.418,124.569 264.121,126.663 C262.028,125.272 260.418,124.772 257.918,124.772 C251.965,124.772 248.075,128.069 248.075,133.069 C248.075,136.022 249.668,138.522 252.278,139.772 C248.918,140.522 247.528,142.022 247.528,144.772 C247.528,146.975 248.528,148.272 250.871,149.069 C247.778,150.225 246.278,151.772 246.278,153.819 C246.278,155.319 247.278,156.725 248.871,157.569 C250.825,158.569 253.215,158.975 256.825,158.975 C265.168,158.975 269.325,156.319 269.325,151.069 C269.325,148.569 268.168,146.569 266.371,145.819 C265.028,145.319 263.418,145.116 260.028,145.116 L254.918,145.116 M257.871,126.913 C260.965,126.913 262.715,129.069 262.715,132.975 C262.715,136.866 260.825,139.225 257.668,139.225 C254.575,139.225 252.621,136.866 252.621,133.116 C252.621,129.163 254.528,126.913 257.871,126.913 M257.418,149.413 C261.575,149.413 261.871,149.413 262.575,149.522 C264.621,149.725 265.825,150.819 265.825,152.413 C265.825,155.272 262.575,156.913 257.028,156.913 C252.778,156.913 250.418,155.663 250.418,153.413 C250.418,151.772 251.325,150.663 253.715,149.413 L257.418,149.413 M282.168,125.522 L273.278,126.069 L273.278,128.225 L275.325,128.225 C277.215,128.272 277.465,128.569 277.465,130.725 L277.465,142.663 L277.465,144.616 L277.465,145.022 C277.418,145.772 277.371,146.069 277.168,146.319 C276.825,146.772 275.871,146.975 273.715,147.022 L273.528,147.022 L273.528,148.819 L286.121,148.819 L286.121,147.022 L285.918,147.022 C282.621,146.913 282.168,146.663 282.168,144.819 L282.168,142.663 L282.168,135.569 C282.168,131.116 284.621,127.819 287.871,127.819 C290.715,127.819 292.168,129.866 292.168,133.913 L292.168,142.663 L292.168,145.069 C292.121,145.725 292.075,146.069 291.825,146.319 C291.528,146.772 290.528,146.975 288.371,147.022 L288.168,147.022 L288.168,148.819 L300.825,148.819 L300.825,147.022 L300.621,147.022 C297.325,146.913 296.871,146.663 296.871,144.866 L296.871,142.663 L296.871,136.022 C296.871,131.022 299.121,127.819 302.621,127.819 C305.481,127.819 306.871,129.975 306.871,134.475 L306.871,142.663 L306.871,145.022 C306.825,145.725 306.778,146.069 306.528,146.319 C306.231,146.772 305.231,146.975 303.075,147.022 L302.871,147.022 L302.871,148.819 L315.528,148.819 L315.528,147.022 L315.325,147.022 C312.028,146.913 311.575,146.663 311.575,144.819 L311.575,142.663 L311.575,133.475 C311.575,130.366 311.278,129.319 309.981,127.616 C308.528,125.772 306.481,124.772 304.075,124.772 C300.825,124.772 298.418,126.319 296.278,129.772 C295.418,126.772 292.715,124.772 289.371,124.772 C286.325,124.772 284.121,126.225 282.168,129.366 L282.168,125.522 M339.371,137.569 C339.418,130.069 335.168,124.772 329.075,124.772 C322.668,124.772 317.871,130.319 317.871,137.819 C317.871,144.866 322.418,149.569 329.168,149.569 C333.965,149.569 337.325,147.225 339.371,142.475 L337.621,141.522 C335.575,145.366 333.465,146.866 330.121,146.866 C327.575,146.866 325.715,145.819 324.418,143.569 C323.528,142.069 323.121,140.319 323.168,137.569 L339.371,137.569 M323.215,135.413 C323.215,133.866 323.418,132.772 323.918,131.366 C324.965,128.366 326.575,126.913 329.028,126.913 C332.028,126.913 334.028,129.569 334.028,133.616 C334.028,135.022 333.575,135.413 331.965,135.413 L323.215,135.413 M351.121,125.522 L342.465,126.069 L342.465,128.225 L344.278,128.225 C346.168,128.272 346.418,128.569 346.418,130.725 L346.418,142.663 L346.418,143.866 L346.418,145.022 C346.371,145.772 346.325,146.069 346.121,146.319 C345.778,146.772 344.825,146.975 342.668,147.022 L342.465,147.022 L342.465,148.819 L355.121,148.819 L355.121,147.022 L354.918,147.022 C351.575,146.913 351.121,146.663 351.121,144.866 L351.121,142.663 L351.121,137.475 C351.121,135.022 351.465,132.772 352.028,131.616 C353.075,129.366 355.325,127.819 357.465,127.819 C358.778,127.819 360.278,128.522 361.028,129.569 C361.778,130.663 362.121,132.163 362.121,134.569 L362.121,142.663 L362.121,145.022 C362.075,145.772 362.028,146.069 361.825,146.319 C361.465,146.772 360.465,146.975 358.325,147.022 L358.121,147.022 L358.121,148.819 L370.778,148.819 L370.778,147.022 L370.575,147.022 C367.278,146.913 366.825,146.663 366.825,144.866 L366.825,142.663 L366.825,134.819 C366.825,131.225 366.668,130.319 365.778,128.616 C364.528,126.225 362.028,124.772 359.028,124.772 C355.778,124.772 353.325,126.272 351.121,129.569 L351.121,125.522 M381.825,125.522 L381.825,115.616 L379.778,115.616 C379.278,122.116 377.075,125.413 373.028,125.725 L373.028,127.663 L377.121,127.663 L377.121,140.413 C377.121,143.913 377.215,145.163 377.715,146.319 C378.528,148.413 380.528,149.569 383.418,149.569 C387.918,149.569 390.825,146.163 390.825,140.866 C390.825,140.569 390.825,140.225 390.778,139.725 L388.668,139.725 C388.528,144.225 387.215,146.522 384.778,146.522 C383.621,146.522 382.621,145.913 382.278,145.069 C381.965,144.366 381.825,143.116 381.825,141.319 L381.825,127.663 L389.168,127.663 L389.168,125.522 L381.825,125.522 M414.371,137.569 C414.418,130.069 410.168,124.772 404.075,124.772 C397.668,124.772 392.871,130.319 392.871,137.819 C392.871,144.866 397.418,149.569 404.168,149.569 C408.965,149.569 412.325,147.225 414.371,142.475 L412.621,141.522 C410.575,145.366 408.465,146.866 405.121,146.866 C402.575,146.866 400.715,145.819 399.418,143.569 C398.528,142.069 398.121,140.319 398.168,137.569 L414.371,137.569 M398.215,135.413 C398.215,133.866 398.418,132.772 398.918,131.366 C399.965,128.366 401.575,126.913 404.028,126.913 C407.028,126.913 409.028,129.569 409.028,133.616 C409.028,135.022 408.575,135.413 406.965,135.413 L398.215,135.413 M435.121,149.163 L443.825,148.819 L443.825,146.663 L442.918,146.663 C440.075,146.522 439.825,146.225 439.825,143.022 L439.825,111.96 L430.028,112.522 L430.028,114.663 L432.965,114.663 C434.871,114.71 435.121,115.022 435.121,117.163 L435.121,128.475 C433.278,125.913 431.121,124.772 428.215,124.772 C422.575,124.772 418.278,130.225 418.278,137.413 C418.278,144.522 422.418,149.569 428.215,149.569 C431.371,149.569 433.528,148.225 435.121,145.225 L435.121,149.163 M429.215,127.475 C431.278,127.475 433.215,128.975 434.121,131.272 C434.778,132.772 435.075,134.819 435.075,137.272 C435.075,143.116 432.778,146.866 429.168,146.866 C425.621,146.866 423.528,143.569 423.528,138.022 C423.528,135.022 423.825,132.772 424.465,131.116 C425.325,128.866 427.168,127.475 429.215,127.475"/>
</svg>
